<svg width="28" height="28" viewBox="0 0 28 28" fill="none" xmlns="http://www.w3.org/2000/svg">
<path d="M16.8461 14.165L20.4476 10.5636L20.8011 10.21L20.4476 9.85648L18.4736 7.88248L18.1194 7.5283L17.7659 7.88311L14.1714 11.4903L10.5636 7.88248L10.21 7.52893L9.85648 7.88248L7.88248 9.85648L7.52893 10.21L7.88248 10.5636L11.4909 14.172L7.88248 17.7805L7.52893 18.134L7.88248 18.4876L9.85648 20.4616L10.21 20.8151L10.5636 20.4616L14.172 16.8531L17.7805 20.4616L18.134 20.8151L18.4876 20.4616L20.4616 18.4876L20.8151 18.134L20.4616 17.7805L16.8461 14.165ZM4.62139 23.7104C3.332 22.4651 2.30354 20.9754 1.59602 19.3284C0.8885 17.6813 0.516086 15.9098 0.50051 14.1173C0.484933 12.3248 0.826506 10.5471 1.5053 8.88801C2.18409 7.22891 3.18651 5.72161 4.45406 4.45406C5.72161 3.18651 7.22891 2.18409 8.88801 1.5053C10.5471 0.826506 12.3248 0.484933 14.1173 0.50051C15.9098 0.516086 17.6813 0.8885 19.3284 1.59602C20.9754 2.30354 22.4651 3.332 23.7104 4.62139C26.1695 7.16752 27.5302 10.5777 27.4995 14.1173C27.4687 17.657 26.049 21.0429 23.5459 23.5459C21.0429 26.049 17.657 27.4687 14.1173 27.4995C10.5777 27.5302 7.16752 26.1695 4.62139 23.7104Z" fill="white" stroke="#D7D7D7"/>
</svg>
