<svg width="14" height="14" viewBox="0 0 14 14" fill="none" xmlns="http://www.w3.org/2000/svg">
<path d="M5.29414 13.9982C4.85914 13.9982 4.44714 13.7952 4.18314 13.4452L0.610136 8.72421C0.49967 8.57841 0.419022 8.41227 0.372803 8.23528C0.326585 8.0583 0.315703 7.87394 0.340778 7.69275C0.365854 7.51155 0.426395 7.33708 0.518942 7.1793C0.611489 7.02152 0.734226 6.88352 0.880136 6.77321C1.026 6.66243 1.19228 6.58153 1.36946 6.53513C1.54665 6.48874 1.73124 6.47777 1.91268 6.50286C2.09411 6.52794 2.2688 6.58858 2.42675 6.6813C2.5847 6.77403 2.7228 6.89701 2.83314 7.04321L5.18414 10.1472L11.0951 0.655206C11.2912 0.341805 11.6035 0.118952 11.9636 0.0355293C12.3238 -0.0478937 12.7023 0.014925 13.0161 0.210206C13.6691 0.616206 13.8701 1.47621 13.4621 2.13021L6.47814 13.3402C6.35891 13.5324 6.19458 13.6926 5.99941 13.807C5.80423 13.9213 5.58411 13.9862 5.35814 13.9962C5.33614 13.9982 5.31614 13.9982 5.29414 13.9982Z" fill="white"/>
</svg>
