<svg width="150" height="210" viewBox="0 0 150 210" fill="none" xmlns="http://www.w3.org/2000/svg">
<rect width="150" height="210" fill="#EDEDED"/>
<path d="M108.59 76.196C108.142 74.436 105.966 73 103.75 73H46.1905C43.9705 73 41.7945 74.436 41.3505 76.196L40.5465 81H109.39L108.59 76.196ZM112.618 85H37.3185C36.9954 85.0002 36.6759 85.0679 36.3805 85.1987C36.0851 85.3296 35.8202 85.5207 35.603 85.7598C35.3857 85.9989 35.2208 86.2808 35.1187 86.5873C35.0167 86.8939 34.9798 87.2184 35.0105 87.54L38.7025 134.216C38.776 134.978 39.1305 135.685 39.697 136.2C40.2634 136.714 41.0011 137 41.7665 137H108.17C108.936 137 109.674 136.714 110.24 136.2C110.806 135.685 111.161 134.978 111.234 134.216L114.926 87.54C114.957 87.2184 114.92 86.8939 114.818 86.5873C114.716 86.2808 114.551 85.9989 114.334 85.7598C114.117 85.5207 113.852 85.3296 113.556 85.1987C113.261 85.0679 112.942 85.0002 112.618 85ZM84.7225 98.5C85.7175 98.5 86.6719 98.8953 87.3755 99.5989C88.0792 100.303 88.4745 101.257 88.4745 102.252C88.4745 103.247 88.0792 104.201 87.3755 104.905C86.6719 105.609 85.7175 106.004 84.7225 106.004C83.7274 106.004 82.773 105.609 82.0694 104.905C81.3658 104.201 80.9705 103.247 80.9705 102.252C80.9705 101.257 81.3658 100.303 82.0694 99.5989C82.773 98.8953 83.7274 98.5 84.7225 98.5ZM56.9705 121L66.9145 98.144L78.2225 116.448L87.9185 111.632L92.9705 121H56.9705Z" fill="#343434"/>
</svg>
