<svg width="452" height="425" viewBox="0 0 452 425" fill="none" xmlns="http://www.w3.org/2000/svg">
<rect y="254" width="221" height="171" rx="15" fill="#1C0808"/>
<mask id="mask0_1993_2278" style="mask-type:luminance" maskUnits="userSpaceOnUse" x="86" y="299" width="49" height="49">
<path d="M88.7285 315.479H132.27L127.458 345.27H93.541L88.7285 315.479Z" fill="white" stroke="white" stroke-width="4" stroke-linecap="round" stroke-linejoin="round"/>
<path d="M123.103 315.479C123.103 307.885 117.46 301.729 110.499 301.729C103.538 301.729 97.8945 307.885 97.8945 315.479" stroke="white" stroke-width="4" stroke-linecap="round" stroke-linejoin="round"/>
<path d="M102.479 328.083C103.745 328.083 104.771 327.057 104.771 325.792C104.771 324.526 103.745 323.5 102.479 323.5C101.214 323.5 100.188 324.526 100.188 325.792C100.188 327.057 101.214 328.083 102.479 328.083Z" fill="black"/>
<path d="M103.625 333.812C103.625 333.812 105.917 337.25 110.5 337.25C115.083 337.25 117.375 333.812 117.375 333.812" stroke="black" stroke-width="4" stroke-linecap="round" stroke-linejoin="round"/>
<path d="M118.52 328.083C119.786 328.083 120.812 327.057 120.812 325.792C120.812 324.526 119.786 323.5 118.52 323.5C117.255 323.5 116.229 324.526 116.229 325.792C116.229 327.057 117.255 328.083 118.52 328.083Z" fill="black"/>
</mask>
<g mask="url(#mask0_1993_2278)">
<path d="M83 296H138V351H83V296Z" fill="white"/>
</g>
<path d="M92.412 364.888H94.5V366.094C94.5 369.712 91.926 372.916 87.606 373.762L86.58 371.782C90.342 371.134 92.412 368.488 92.412 366.094V364.888ZM92.898 364.888H94.968V366.094C94.968 368.542 97.02 371.134 100.8 371.782L99.774 373.762C95.454 372.916 92.898 369.766 92.898 366.094V364.888ZM86.238 376.624H101.322V378.568H86.238V376.624ZM104.561 372.178H116.279V374.068H104.561V372.178ZM102.797 376.84H117.881V378.766H102.797V376.84ZM109.133 373.132H111.527V377.686H109.133V373.132ZM104.561 365.068H116.135V366.976H106.991V372.898H104.561V365.068ZM106.253 368.596H115.757V370.468H106.253V368.596ZM123.909 365.086C126.393 365.086 128.211 367.39 128.211 371.026C128.211 374.698 126.393 377.002 123.909 377.002C121.407 377.002 119.607 374.698 119.607 371.026C119.607 367.39 121.407 365.086 123.909 365.086ZM123.909 367.264C122.703 367.264 121.893 368.578 121.893 371.026C121.893 373.51 122.703 374.842 123.909 374.842C125.133 374.842 125.925 373.51 125.925 371.026C125.925 368.578 125.133 367.264 123.909 367.264ZM130.947 363.916H133.323V380.638H130.947V363.916ZM127.509 369.928H131.955V371.854H127.509V369.928Z" fill="white"/>
<rect x="231" y="254" width="221" height="171" rx="15" fill="#1C0808"/>
<path fill-rule="evenodd" clip-rule="evenodd" d="M359.147 330.375C359.147 326.58 356.075 323.5 352.29 323.5H330.733C326.944 323.5 323.876 326.58 323.876 330.375V335.286H323.868V347.071H359.131V343.143H359.147V330.375ZM378.672 325.514C379.958 326.803 380.681 328.552 380.681 330.375V344.125C380.681 344.906 380.371 345.656 379.82 346.208C379.269 346.761 378.521 347.071 377.742 347.071H363.049V335.286H363.065V330.375C363.065 327.762 362.14 325.366 360.6 323.5H373.824C375.642 323.5 377.386 324.224 378.672 325.514ZM319.958 343.143H319.95V347.071H305.257C303.635 347.071 302.318 345.751 302.318 344.125V330.375C302.318 328.65 302.966 326.987 304.131 325.718C305.297 324.449 306.896 323.666 308.611 323.524L309.175 323.5H322.422C321.011 325.203 320.162 327.303 319.993 329.511L319.958 330.375V343.143ZM349.811 299.452C347.607 297.242 344.617 296 341.499 296C338.382 296 335.392 297.242 333.188 299.452C330.984 301.662 329.745 304.66 329.745 307.786C329.745 310.911 330.984 313.909 333.188 316.119C335.392 318.33 338.382 319.571 341.499 319.571C344.617 319.571 347.607 318.33 349.811 316.119C352.015 313.909 353.254 310.911 353.254 307.786C353.254 304.66 352.015 301.662 349.811 299.452ZM373.894 302.805C372.057 300.963 369.565 299.929 366.967 299.929C364.369 299.929 361.878 300.963 360.041 302.805C358.204 304.647 357.172 307.145 357.172 309.75C357.172 312.355 358.204 314.853 360.041 316.695C361.878 318.537 364.369 319.571 366.967 319.571C369.565 319.571 372.057 318.537 373.894 316.695C375.73 314.853 376.762 312.355 376.762 309.75C376.762 307.145 375.73 304.647 373.894 302.805ZM322.958 302.805C321.121 300.963 318.63 299.929 316.032 299.929C313.434 299.929 310.942 300.963 309.105 302.805C307.268 304.647 306.236 307.145 306.236 309.75C306.236 312.355 307.268 314.853 309.105 316.695C310.942 318.537 313.434 319.571 316.032 319.571C318.63 319.571 321.121 318.537 322.958 316.695C324.795 314.853 325.827 312.355 325.827 309.75C325.827 307.145 324.795 304.647 322.958 302.805ZM305.241 351H377.758C377.752 351 377.747 351 377.742 351H305.257C305.252 351 305.246 351 305.241 351Z" fill="white"/>
<path d="M314.876 365.536H317.198C317.198 370.666 315.866 374.968 309.89 378.1L308.576 376.282C313.49 373.69 314.876 370.54 314.876 365.824V365.536ZM309.566 365.536H316.334V367.426H309.566V365.536ZM315.11 369.622V371.44L308.99 371.998L308.684 369.982L315.11 369.622ZM320.276 363.934H322.67V380.602H320.276V363.934ZM317.18 370.324H321.536V372.268H317.18V370.324ZM328.735 373.708H331.129V380.656H328.735V373.708ZM334.603 373.708H336.997V380.656H334.603V373.708ZM325.279 373.222H340.381V375.13H325.279V373.222ZM327.025 364.726H338.581V371.44H327.025V364.726ZM336.223 366.598H329.383V369.55H336.223V366.598ZM353.375 363.934H355.769V380.602H353.375V363.934ZM342.719 365.518H345.095V375.868H342.719V365.518ZM342.719 374.464H344.195C346.625 374.464 349.325 374.284 352.079 373.744L352.349 375.724C349.487 376.318 346.733 376.498 344.195 376.498H342.719V374.464ZM359.296 374.896H360.736C363.652 374.896 365.884 374.842 368.458 374.464L368.674 376.354C366.064 376.768 363.706 376.84 360.736 376.84H359.296V374.896ZM359.296 365.32H367.738V367.264H361.672V375.526H359.296V365.32ZM361.132 369.946H367.036V371.818H361.132V369.946ZM369.88 363.934H372.292V380.602H369.88V363.934Z" fill="white"/>
<rect y="68" width="221" height="171" rx="15" fill="#1C0808"/>
<path d="M120.369 113.489C120.811 113.599 121.191 113.88 121.426 114.271C121.661 114.662 121.731 115.129 121.62 115.572L120.761 119.009C120.711 119.233 120.616 119.444 120.483 119.63C120.35 119.817 120.181 119.975 119.986 120.095C119.791 120.215 119.574 120.295 119.348 120.33C119.122 120.365 118.89 120.355 118.668 120.299C118.446 120.244 118.237 120.145 118.054 120.007C117.87 119.87 117.716 119.697 117.601 119.5C117.485 119.302 117.41 119.083 117.38 118.856C117.35 118.629 117.366 118.398 117.427 118.177L118.286 114.74C118.397 114.298 118.678 113.918 119.069 113.683C119.459 113.448 119.927 113.378 120.369 113.489ZM130.623 117.38C130.946 117.702 131.127 118.139 131.127 118.595C131.127 119.051 130.946 119.488 130.623 119.81L127.186 123.248C127.026 123.407 126.837 123.534 126.628 123.621C126.42 123.707 126.196 123.752 125.97 123.752C125.744 123.752 125.521 123.708 125.312 123.622C125.103 123.535 124.914 123.409 124.754 123.249C124.431 122.927 124.25 122.49 124.249 122.034C124.249 121.578 124.43 121.14 124.752 120.817L128.19 117.38C128.349 117.22 128.539 117.093 128.748 117.006C128.956 116.919 129.18 116.875 129.406 116.875C129.632 116.875 129.856 116.919 130.065 117.006C130.274 117.093 130.464 117.22 130.623 117.38ZM104.601 154.8C105.464 156.237 106.822 157.308 108.419 157.814C110.016 158.32 111.743 158.226 113.275 157.548C114.807 156.871 116.04 155.657 116.74 154.135C117.441 152.613 117.561 150.888 117.08 149.283L104.601 154.797V154.8ZM101.439 156.196L98.0083 157.715C97.1207 158.107 96.1353 158.222 95.1813 158.044C94.2274 157.866 93.3496 157.404 92.663 156.719L91.288 155.347C90.603 154.665 90.1403 153.792 89.9606 152.842C89.7808 151.893 89.8924 150.911 90.2808 150.026L103.587 119.748C103.903 119.033 104.387 118.406 104.999 117.92C105.612 117.434 106.333 117.105 107.101 116.96C107.869 116.816 108.66 116.861 109.407 117.091C110.154 117.321 110.833 117.729 111.387 118.28L129.716 136.554C130.268 137.105 130.677 137.782 130.909 138.527C131.14 139.271 131.186 140.061 131.044 140.828C130.901 141.595 130.573 142.315 130.089 142.926C129.605 143.538 128.979 144.022 128.265 144.337L120.239 147.884C121.087 150.329 120.985 153.004 119.953 155.378C118.92 157.751 117.033 159.65 114.666 160.696C112.299 161.743 109.625 161.861 107.174 161.028C104.724 160.194 102.677 158.469 101.439 156.196ZM132.844 127.187H129.406C128.951 127.187 128.513 127.368 128.191 127.69C127.869 128.013 127.688 128.45 127.688 128.906C127.688 129.362 127.869 129.799 128.191 130.121C128.513 130.443 128.951 130.624 129.406 130.624H132.844C133.3 130.624 133.737 130.443 134.059 130.121C134.382 129.799 134.563 129.362 134.563 128.906C134.563 128.45 134.382 128.013 134.059 127.69C133.737 127.368 133.3 127.187 132.844 127.187Z" fill="white"/>
<path d="M55.344 181.606H58.116V183.532H55.344V181.606ZM55.344 186.754H58.116V188.698H55.344V186.754ZM60.762 177.934H63.048V194.602H60.762V177.934ZM57.432 178.186H59.664V193.846H57.432V178.186ZM52.464 179.104C54.678 179.104 56.1 181.39 56.1 185.152C56.1 188.932 54.678 191.218 52.464 191.218C50.268 191.218 48.864 188.932 48.864 185.152C48.864 181.39 50.268 179.104 52.464 179.104ZM52.464 181.354C51.546 181.354 51.006 182.614 51.006 185.152C51.006 187.708 51.546 188.95 52.464 188.95C53.4 188.95 53.94 187.708 53.94 185.152C53.94 182.614 53.4 181.354 52.464 181.354ZM77.3206 177.934H79.6066V194.602H77.3206V177.934ZM75.3226 184.288H78.0766V186.214H75.3226V184.288ZM73.6666 178.186H75.9166V193.846H73.6666V178.186ZM65.7466 179.644H72.3346V190.444H65.7466V179.644ZM70.1026 181.516H67.9786V188.572H70.1026V181.516ZM92.3392 187.312H94.7332V191.11H92.3392V187.312ZM93.5452 178.78C97.1092 178.78 99.7732 180.598 99.7732 183.37C99.7732 186.178 97.1092 187.978 93.5452 187.978C89.9812 187.978 87.3172 186.178 87.3172 183.37C87.3172 180.598 89.9812 178.78 93.5452 178.78ZM93.5452 180.67C91.2592 180.67 89.6752 181.678 89.6752 183.37C89.6752 185.098 91.2592 186.088 93.5452 186.088C95.8312 186.088 97.4152 185.098 97.4152 183.37C97.4152 181.678 95.8312 180.67 93.5452 180.67ZM86.0212 190.732H101.105V192.676H86.0212V190.732ZM103.876 178.636H116.296V180.526H103.876V178.636ZM104.002 183.334H116.17V185.206H104.002V183.334ZM106 179.356H108.394V184.306H106V179.356ZM111.778 179.356H114.172V184.306H111.778V179.356ZM102.562 186.52H117.628V188.41H102.562V186.52ZM104.38 192.406H115.936V194.314H104.38V192.406ZM104.38 189.526H106.774V193.018H104.38V189.526ZM123.818 178.42C126.356 178.42 128.264 180.004 128.264 182.236C128.264 184.45 126.356 186.034 123.818 186.034C121.28 186.034 119.372 184.45 119.372 182.236C119.372 180.004 121.28 178.42 123.818 178.42ZM123.818 180.364C122.594 180.364 121.676 181.048 121.676 182.236C121.676 183.424 122.594 184.108 123.818 184.108C125.042 184.108 125.942 183.424 125.942 182.236C125.942 181.048 125.042 180.364 123.818 180.364ZM130.568 177.934H132.98V186.268H130.568V177.934ZM121.856 186.952H132.98V191.524H124.232V193.54H121.892V189.796H130.604V188.806H121.856V186.952ZM121.892 192.568H133.394V194.422H121.892V192.568ZM150.573 177.934H152.967V190.048H150.573V177.934ZM152.283 182.704H155.181V184.666H152.283V182.704ZM142.221 192.406H153.561V194.314H142.221V192.406ZM142.221 188.788H144.615V193.252H142.221V188.788ZM144.489 178.996C147.045 178.996 149.025 180.778 149.025 183.244C149.025 185.692 147.045 187.474 144.489 187.474C141.933 187.474 139.953 185.692 139.953 183.244C139.953 180.778 141.933 178.996 144.489 178.996ZM144.489 181.084C143.265 181.084 142.293 181.876 142.293 183.244C142.293 184.594 143.265 185.386 144.489 185.386C145.731 185.386 146.685 184.594 146.685 183.244C146.685 181.876 145.731 181.084 144.489 181.084ZM168.392 177.934H170.678V194.602H168.392V177.934ZM166.214 184.36H168.986V186.268H166.214V184.36ZM164.666 178.222H166.898V193.81H164.666V178.222ZM157.052 179.77H159.446V189.4H157.052V179.77ZM157.052 188.5H158.204C159.806 188.5 161.678 188.41 163.748 188.014L163.982 190.066C161.804 190.462 159.896 190.552 158.204 190.552H157.052V188.5Z" fill="white"/>
<rect x="231" y="68" width="221" height="171" rx="15" fill="#1C0808"/>
<path d="M349.705 148.499L341.501 143.229L333.296 148.499L335.771 139.058L328.232 132.916L337.971 132.32L341.501 123.291L345.03 132.32L354.769 132.916L347.23 139.058M359.834 137.499C359.834 136.284 360.317 135.118 361.176 134.258C362.036 133.399 363.202 132.916 364.417 132.916V123.749C364.417 122.534 363.934 121.368 363.075 120.508C362.215 119.649 361.05 119.166 359.834 119.166H323.167C321.952 119.166 320.786 119.649 319.926 120.508C319.067 121.368 318.584 122.534 318.584 123.749V132.916C319.8 132.916 320.965 133.399 321.825 134.258C322.684 135.118 323.167 136.284 323.167 137.499C323.167 138.715 322.684 139.881 321.825 140.74C320.965 141.6 319.8 142.083 318.584 142.083V151.249C318.584 152.465 319.067 153.631 319.926 154.49C320.786 155.35 321.952 155.833 323.167 155.833H359.834C361.05 155.833 362.215 155.35 363.075 154.49C363.934 153.631 364.417 152.465 364.417 151.249V142.083C363.202 142.083 362.036 141.6 361.176 140.74C360.317 139.881 359.834 138.715 359.834 137.499Z" fill="white"/>
<path d="M314.172 188.302C317.772 188.302 320.076 189.49 320.076 191.47C320.076 193.414 317.772 194.602 314.172 194.602C310.572 194.602 308.268 193.414 308.268 191.47C308.268 189.49 310.572 188.302 314.172 188.302ZM314.172 190.102C311.922 190.102 310.644 190.57 310.644 191.47C310.644 192.352 311.922 192.802 314.172 192.802C316.422 192.802 317.7 192.352 317.7 191.47C317.7 190.57 316.422 190.102 314.172 190.102ZM308.448 178.672H318.996V180.562H308.448V178.672ZM306.756 185.368H321.768V187.276H306.756V185.368ZM312.318 182.47H314.694V185.854H312.318V182.47ZM317.61 178.672H319.986V180.04C319.986 181.354 319.986 182.776 319.536 184.504L317.16 184.252C317.61 182.542 317.61 181.336 317.61 180.04V178.672ZM330.821 180.256H335.717V182.164H330.821V180.256ZM330.821 184.306H335.717V186.214H330.821V184.306ZM334.835 177.952H337.229V190.138H334.835V177.952ZM326.231 192.406H337.607V194.314H326.231V192.406ZM326.231 188.932H328.625V193.396H326.231V188.932ZM327.887 178.924C330.353 178.924 332.279 180.724 332.279 183.244C332.279 185.728 330.353 187.546 327.887 187.546C325.403 187.546 323.477 185.728 323.477 183.244C323.477 180.724 325.403 178.924 327.887 178.924ZM327.887 181.03C326.663 181.03 325.763 181.858 325.763 183.244C325.763 184.63 326.663 185.458 327.887 185.458C329.093 185.458 330.011 184.63 330.011 183.244C330.011 181.858 329.093 181.03 327.887 181.03ZM350.627 181.606H353.399V183.532H350.627V181.606ZM350.627 186.754H353.399V188.698H350.627V186.754ZM356.045 177.934H358.331V194.602H356.045V177.934ZM352.715 178.186H354.947V193.846H352.715V178.186ZM347.747 179.104C349.961 179.104 351.383 181.39 351.383 185.152C351.383 188.932 349.961 191.218 347.747 191.218C345.551 191.218 344.147 188.932 344.147 185.152C344.147 181.39 345.551 179.104 347.747 179.104ZM347.747 181.354C346.829 181.354 346.289 182.614 346.289 185.152C346.289 187.708 346.829 188.95 347.747 188.95C348.683 188.95 349.223 187.708 349.223 185.152C349.223 182.614 348.683 181.354 347.747 181.354ZM372.604 177.934H374.89V194.602H372.604V177.934ZM370.606 184.288H373.36V186.214H370.606V184.288ZM368.95 178.186H371.2V193.846H368.95V178.186ZM361.03 179.644H367.618V190.444H361.03V179.644ZM365.386 181.516H363.262V188.572H365.386V181.516Z" fill="white"/>
<path d="M294.599 12.4524C297.578 12.4676 300.649 12.6377 303.772 12.9265C296.939 17.2223 286.539 22.1596 276.232 25.7666C269.104 28.2617 261.98 30.211 256.083 31.165C252.45 31.7524 249.368 31.8164 247.089 31.6253C250.526 25.5817 257.576 20.1812 267.502 16.6777C274.835 14.0897 283.628 12.5537 293.329 12.4553C293.752 12.4511 294.176 12.4501 294.599 12.4524ZM155.4 12.4524C155.824 12.4501 156.247 12.4511 156.671 12.4553C166.372 12.5537 175.165 14.0901 182.497 16.6777C192.424 20.1812 199.473 25.5817 202.91 31.6253C200.632 31.8164 197.549 31.7524 193.917 31.165C188.02 30.211 180.895 28.2617 173.767 25.7666C163.461 22.1593 153.061 17.2223 146.227 12.9265C149.351 12.638 152.421 12.4676 155.4 12.4524ZM307.189 18.8098C303.291 41.8371 303.639 73.7096 308.226 95.1643C295.411 96.8942 281.402 94.263 269.779 89.7427C263.462 87.2865 257.859 84.2996 253.576 81.3018C252.019 80.212 250.663 79.1152 249.506 78.0603C249.927 77.6453 250.332 77.2142 250.72 76.7681C256.112 70.5505 257.208 61.6501 255.817 53.2343C254.949 47.9802 253.112 42.8216 250.401 38.427C259.479 38.5868 270.21 35.7569 280.622 31.9206C290.646 28.2275 300.14 23.5604 307.189 18.8098ZM142.81 18.8098C149.859 23.5604 159.353 28.2275 169.377 31.9206C179.789 35.7569 190.52 38.5868 199.598 38.427C196.888 42.8216 195.05 47.9802 194.183 53.2343C192.792 61.6501 193.887 70.5505 199.28 76.7681C199.667 77.2142 200.072 77.6453 200.493 78.0603C199.337 79.1152 197.98 80.2123 196.423 81.3018C192.141 84.2996 186.537 87.2865 180.221 89.7427C168.597 94.263 154.588 96.8942 141.773 95.1643C146.361 73.7096 146.709 41.8371 142.81 18.8098ZM225 31.4956C230.887 31.4956 236.707 33.2967 240.295 36.4082C244.675 40.2071 248.193 47.2035 249.365 54.2998C250.538 61.3965 249.364 68.3516 245.78 72.4839C241.613 77.2879 233.384 80.1382 225 80.1382C216.616 80.1382 208.386 77.2879 204.22 72.4839C200.636 68.3516 199.462 61.3965 200.634 54.2998C201.807 47.2035 205.324 40.2071 209.704 36.4082C213.292 33.2967 219.113 31.4956 225 31.4956ZM244.145 82.084C245.77 83.6395 247.679 85.1562 249.826 86.6591C254.625 90.0188 260.646 93.2076 267.408 95.8374C267.985 96.0616 268.568 96.2803 269.155 96.4961C276.703 120.184 288.227 143.016 300.08 163.331C297.008 162.642 293.196 161.6 289.328 160.194C281.605 157.385 273.233 153.111 267.999 147.877L263.858 143.736L262.507 149.433C259.758 161.015 254.48 166.933 248.798 173.548C235.969 149.929 230.19 118.859 228.714 86.5305C234.22 86.0939 239.608 84.6651 244.144 82.084H244.145ZM205.855 82.084C210.391 84.6651 215.78 86.0939 221.285 86.5305C219.81 118.859 214.03 149.929 201.202 173.548C195.519 166.933 190.242 161.014 187.493 149.434L186.142 143.736L182 147.877C176.766 153.112 168.394 157.385 160.671 160.194C156.803 161.6 152.992 162.642 149.92 163.331C161.772 143.016 173.297 120.184 180.845 96.4961C181.431 96.2803 182.014 96.0616 182.591 95.8374C189.353 93.2076 195.374 90.0188 200.174 86.6591C202.321 85.1562 204.229 83.6395 205.855 82.084H205.855Z" fill="#EDD348"/>
</svg>
