<svg width="19" height="15" viewBox="0 0 19 15" fill="none" xmlns="http://www.w3.org/2000/svg">
<path d="M5.80937 10.2917L15.3969 0.458333C15.6948 0.152777 16.074 0 16.5344 0C16.9948 0 17.374 0.152777 17.6719 0.458333C17.9698 0.763888 18.1188 1.15278 18.1188 1.625C18.1188 2.09722 17.9698 2.48611 17.6719 2.79167L6.94687 13.7917C6.62187 14.125 6.24271 14.2917 5.80937 14.2917C5.37604 14.2917 4.99688 14.125 4.67188 13.7917L0.446874 9.45833C0.148958 9.15278 0 8.76389 0 8.29167C0 7.81944 0.148958 7.43055 0.446874 7.125C0.744791 6.81944 1.12396 6.66667 1.58437 6.66667C2.04479 6.66667 2.42396 6.81944 2.72188 7.125L5.80937 10.2917Z" fill="#B5B5B5"/>
</svg>
