<svg width="41" height="40" viewBox="0 0 41 40" fill="none" xmlns="http://www.w3.org/2000/svg">
<path d="M37.4105 30.4037L21.8455 39.0427C21.0988 39.4571 19.8769 39.4571 19.1302 39.0427L3.56516 30.4037C3.1918 30.1965 3.00516 29.9233 3.00516 29.6502H2.83984V10.3516H37.9705V29.6502C37.9705 29.9233 37.7839 30.1965 37.4105 30.4037Z" fill="#FF473E"/>
<path d="M37.9731 10.3516V29.6502C37.9731 29.9234 37.7865 30.1966 37.4131 30.4038L21.848 39.0427C21.4598 39.2582 20.9431 39.3609 20.4315 39.352C20.4436 29.6884 20.7183 20.0125 20.418 10.3516L37.9731 10.3516Z" fill="#FF6E83"/>
<path d="M19.1329 19.7422L3.56785 11.1033C2.82113 10.6888 2.82113 10.0107 3.56785 9.59623L19.1329 0.957324C19.8796 0.542871 21.1014 0.542871 21.8481 0.957324L37.4132 9.59631C38.1599 10.0108 38.1599 10.6889 37.4132 11.1033L21.8482 19.7422C21.1014 20.1567 19.8796 20.1567 19.1329 19.7422Z" fill="#FFA9BA"/>
<path d="M31.0538 5.79122C31.053 5.88254 31.0276 5.97195 30.9803 6.05006C30.933 6.12817 30.8655 6.19207 30.7849 6.23505L12.1354 16.1761C12.1097 16.1898 12.0829 16.2012 12.0552 16.2103L11.9922 16.2455V34.7979C11.9922 34.8863 11.9691 34.9732 11.9252 35.0499C11.8814 35.1267 11.8182 35.1906 11.742 35.2355C11.6658 35.2804 11.5793 35.3045 11.4908 35.3057C11.4024 35.3068 11.3153 35.2848 11.238 35.2419L8.11297 33.5075C8.03374 33.4635 7.96772 33.3991 7.92176 33.3211C7.87579 33.243 7.85156 33.154 7.85156 33.0634V15.0099C7.85165 14.7001 7.92128 14.3943 8.05531 14.115C8.18935 13.8357 8.38438 13.5901 8.62602 13.3962L8.64445 13.3818C8.68539 13.3498 8.72422 13.3216 8.76414 13.2947C8.82346 13.2544 8.88479 13.2171 8.94789 13.1831L27.0526 3.53247C27.1274 3.49258 27.211 3.47206 27.2958 3.47279C27.3805 3.47351 27.4638 3.49545 27.5379 3.53661L30.7925 5.34294C30.8723 5.38727 30.9387 5.4523 30.9847 5.53119C31.0307 5.61008 31.0546 5.69991 31.0538 5.79122ZM32.7736 13.6452C32.6554 13.5105 32.5202 13.3917 32.3714 13.2918C32.3616 13.2852 32.3519 13.2786 32.3404 13.2711C32.2921 13.2396 32.2424 13.2101 32.1916 13.1829L14.087 3.53239C14.0122 3.49248 13.9285 3.47195 13.8438 3.47267C13.759 3.4734 13.6757 3.49535 13.6016 3.53653L10.347 5.34286C10.2671 5.38716 10.2007 5.45219 10.1547 5.53109C10.1086 5.61 10.0848 5.69986 10.0855 5.7912C10.0863 5.88255 10.1117 5.97199 10.1591 6.0501C10.2064 6.12822 10.274 6.19211 10.3546 6.23505L29.0041 16.1761C29.0301 16.1899 29.057 16.2013 29.0844 16.2104L29.1473 16.2456V34.7979C29.1473 34.8863 29.1704 34.9732 29.2143 35.05C29.2582 35.1267 29.3213 35.1907 29.3975 35.2356C29.4737 35.2804 29.5603 35.3046 29.6487 35.3057C29.7371 35.3069 29.8243 35.2849 29.9016 35.242L33.0266 33.5075C33.1058 33.4636 33.1718 33.3992 33.2177 33.3211C33.2637 33.243 33.288 33.1541 33.288 33.0635V15.0099C33.2877 14.5077 33.1049 14.0226 32.7736 13.6452Z" fill="#FFD4DE"/>
<path d="M26.7176 10.7087C26.7176 11.983 25.1546 12.9078 23.0012 12.9078C22.123 12.9078 21.3433 12.7538 20.7275 12.4852C20.6489 12.4511 20.5637 12.4347 20.478 12.4373C20.3923 12.4398 20.3083 12.4612 20.2318 12.5C19.59 12.8239 18.739 13.0127 17.7671 13.0127C15.6137 13.0127 14.0508 12.0878 14.0508 10.8135C14.0508 10.172 14.447 9.61906 15.1153 9.22805C15.3786 9.07406 15.4891 8.74539 15.3588 8.46969C14.8824 7.46234 14.8977 6.51727 15.482 5.93305C15.7845 5.63047 16.1989 5.47055 16.6804 5.47055C17.0187 5.47055 17.386 5.55047 17.7634 5.70055C17.9084 5.75838 18.0704 5.75686 18.2143 5.69632C18.3582 5.63577 18.4725 5.52106 18.5325 5.37695C18.9204 4.45109 19.5622 3.88086 20.3317 3.88086C21.0881 3.88086 21.7213 4.43172 22.1111 5.32984C22.2405 5.62797 22.582 5.77023 22.8823 5.64625C23.2767 5.48352 23.6609 5.39648 24.0138 5.39648C24.622 5.39648 25.0012 5.64797 25.2122 5.85898C25.7865 6.43328 25.8112 7.35617 25.3595 8.34422C25.2327 8.62141 25.3451 8.94938 25.6104 9.0993C26.3043 9.49133 26.7176 10.0537 26.7176 10.7087Z" fill="#FF6E83"/>
</svg>
