<svg width="29" height="28" viewBox="0 0 29 28" fill="none" xmlns="http://www.w3.org/2000/svg">
<path d="M9.90826 5.25174C8.69226 7.93274 7.19926 11.2237 6.07926 12.5317C5.86026 12.0227 5.88426 11.1717 5.63426 9.09374C5.40826 7.21674 3.86026 7.03874 3.19626 7.17174C1.72826 7.47774 1.28026 8.96674 1.32926 9.51574C1.40726 10.3907 1.41126 10.3607 1.57126 12.4757C1.80626 15.5697 0.611259 17.9057 0.501259 20.5547C0.501259 25.5467 4.87626 27.9997 7.93926 27.9997C10.3893 27.9997 12.8393 26.4317 13.7593 25.6477L18.3533 21.4527C18.9153 21.0157 20.3053 19.5727 20.9153 18.7427C22.5783 16.4797 20.1733 14.9217 18.8213 15.3127C18.9283 15.2307 19.5693 14.1897 19.8763 13.6797C20.7013 12.0227 19.8763 10.9197 19.2663 10.6167C17.8843 9.92974 16.8683 10.7027 16.5483 11.1247C16.6703 10.9167 17.0543 10.0747 17.6733 8.53074C18.2923 6.98774 17.2953 6.03374 16.7203 5.74974C15.4703 5.17174 14.2823 5.90574 13.9853 6.56274C13.8403 6.88274 13.0553 8.60074 12.7153 9.35874C12.9723 8.73074 13.4383 7.48274 13.6033 6.90574C13.9313 5.54574 13.1423 4.61474 12.6423 4.37474C11.9463 4.04174 10.4963 3.95474 9.92226 5.21874L9.90826 5.25174Z" fill="#1C0808"/>
<path d="M12.7183 4.91558C12.6123 4.57558 12.4673 4.36958 12.3573 4.26758C12.4613 4.29758 12.5573 4.33558 12.6413 4.37558C13.1413 4.61558 13.9303 5.54758 13.6013 6.90658C13.4373 7.48358 12.9713 8.73158 12.7133 9.35958L12.8373 9.08558C12.2733 10.3806 11.5703 11.7756 11.0403 12.6756C10.973 12.7899 10.8631 12.8728 10.7348 12.9061C10.6064 12.9394 10.4701 12.9203 10.3558 12.8531C10.2415 12.7858 10.1585 12.676 10.1253 12.5476C10.092 12.4192 10.111 12.2829 10.1783 12.1686C11.0383 10.7076 12.3463 7.93358 12.7213 6.55658C12.8739 6.02043 12.8729 5.45117 12.7183 4.91558ZM19.8753 13.6806C19.6433 14.0666 19.2203 14.7556 18.9813 15.1036C18.6653 15.4836 18.3193 15.8486 17.9693 16.1946C17.5693 16.5906 17.1543 16.9726 16.7613 17.3346L16.7283 17.3646C16.3223 17.7386 15.9433 18.0896 15.6143 18.4226C15.521 18.517 15.3941 18.5705 15.2615 18.5714C15.1288 18.5722 15.0012 18.5203 14.9068 18.4271C14.8124 18.3339 14.7588 18.2069 14.758 18.0743C14.7571 17.9416 14.809 17.814 14.9023 17.7196C15.2513 17.3666 15.6483 16.9996 16.0513 16.6296L16.0793 16.6036C16.4753 16.2386 16.8793 15.8666 17.2653 15.4836C18.0633 14.6936 18.7453 13.8996 19.1073 13.0986C19.3643 12.5326 19.4273 11.8696 19.3573 11.3216C19.3327 11.0958 19.2733 10.8752 19.1813 10.6676C19.1618 10.6259 19.139 10.5858 19.1133 10.5476C19.1633 10.5686 19.2143 10.5926 19.2663 10.6176C19.8753 10.9206 20.7003 12.0236 19.8753 13.6806ZM16.6173 5.70658C16.7243 5.77858 16.8703 5.95258 16.9633 6.29058C17.0683 6.67158 17.0833 7.20758 16.9083 7.85358C16.6543 8.78958 16.0163 10.0456 15.2873 11.2756C14.6562 12.3344 13.9775 13.3641 13.2533 14.3616C13.2125 14.4144 13.1828 14.4749 13.1658 14.5394C13.1487 14.604 13.1448 14.6712 13.1542 14.7373C13.1636 14.8034 13.1862 14.8669 13.2205 14.9241C13.2548 14.9813 13.3003 15.0311 13.3541 15.0705C13.408 15.1099 13.4692 15.1381 13.5342 15.1535C13.5991 15.1688 13.6665 15.171 13.7323 15.1599C13.7981 15.1488 13.861 15.1247 13.9173 15.0889C13.9737 15.0531 14.0223 15.0064 14.0603 14.9516C14.8034 13.9283 15.4997 12.8719 16.1473 11.7856C16.3473 11.4496 16.5433 11.1056 16.7293 10.7616C17.0621 10.0262 17.3765 9.28262 17.6723 8.53158C18.2913 6.98858 17.2943 6.03458 16.7193 5.75158C16.6853 5.73458 16.6513 5.72058 16.6173 5.70658ZM5.82427 10.9446C5.89727 11.7386 5.93927 12.1926 6.06927 12.5106C6.07727 12.6106 6.08427 12.7006 6.09227 12.7836C6.1042 12.9157 6.06318 13.0471 5.97823 13.1489C5.89327 13.2507 5.77135 13.3146 5.63927 13.3266C5.50719 13.3385 5.37578 13.2975 5.27395 13.2125C5.17212 13.1276 5.1082 13.0057 5.09627 12.8736C5.08127 12.7106 5.06627 12.5206 5.05127 12.3066C4.99227 11.5136 4.90927 10.3826 4.66427 8.96058C4.56227 8.37058 4.29727 7.85858 3.99427 7.52458C3.75927 7.26758 3.55727 7.16858 3.41827 7.14358C4.15527 7.09158 5.43027 7.40458 5.63327 9.09358C5.70629 9.70924 5.76996 10.326 5.82427 10.9436V10.9446Z" fill="white"/>
<path d="M6.46224 5.55707C6.46178 5.62273 6.44839 5.68766 6.42284 5.74815C6.39729 5.80863 6.36007 5.8635 6.31332 5.9096C6.26656 5.9557 6.21118 5.99215 6.15035 6.01685C6.08951 6.04155 6.0244 6.05403 5.95874 6.05357C5.89308 6.05311 5.82815 6.03972 5.76766 6.01417C5.70718 5.98862 5.65231 5.95141 5.60621 5.90465C5.56011 5.8579 5.52366 5.80252 5.49896 5.74168C5.47426 5.68084 5.46178 5.61573 5.46224 5.55007C5.47724 3.25507 7.22224 0.062072 10.9722 0.086072C11.1048 0.0870003 11.2317 0.140569 11.3248 0.234993C11.4179 0.329418 11.4697 0.456964 11.4687 0.589572C11.4678 0.72218 11.4142 0.848989 11.3198 0.9421C11.2254 1.03521 11.0978 1.087 10.9652 1.08607C7.93324 1.06607 6.47524 3.63407 6.46224 5.55707Z" fill="#5092FF"/>
<path d="M7.623 7.98675C7.75544 7.98755 7.88278 7.93577 7.97708 7.84278C8.07139 7.74979 8.12494 7.62319 8.126 7.49075C8.132 6.58075 8.507 5.37075 9.303 4.39575C10.087 3.43575 11.27 2.71375 12.923 2.72475C13.0556 2.72568 13.1832 2.67389 13.2776 2.58078C13.372 2.48767 13.4256 2.36086 13.4265 2.22825C13.4274 2.09564 13.3756 1.9681 13.2825 1.87367C13.1894 1.77925 13.0626 1.72568 12.93 1.72475C10.942 1.71175 9.482 2.59675 8.529 3.76275C7.589 4.91375 7.134 6.34575 7.126 7.48375C7.1256 7.54941 7.13815 7.61451 7.16291 7.67532C7.18767 7.73614 7.22417 7.79148 7.27032 7.83819C7.31647 7.88489 7.37137 7.92205 7.43188 7.94755C7.4924 7.97304 7.55734 7.98636 7.623 7.98675ZM25.625 15.6108C25.625 15.4781 25.6777 15.351 25.7714 15.2572C25.8652 15.1634 25.9924 15.1108 26.125 15.1108C26.2576 15.1108 26.3848 15.1634 26.4786 15.2572C26.5723 15.351 26.625 15.4781 26.625 15.6108C26.625 16.7478 26.18 18.1828 25.247 19.3408C24.301 20.5128 22.847 21.4068 20.859 21.4068C20.7264 21.4068 20.5992 21.3541 20.5054 21.2603C20.4117 21.1665 20.359 21.0394 20.359 20.9068C20.359 20.7741 20.4117 20.647 20.5054 20.5532C20.5992 20.4594 20.7264 20.4068 20.859 20.4068C22.512 20.4068 23.691 19.6768 24.469 18.7128C25.258 17.7328 25.625 16.5188 25.625 15.6097V15.6108Z" fill="#5092FF"/>
<path d="M27.3008 17.5312C27.3008 17.3986 27.3535 17.2715 27.4472 17.1777C27.541 17.0839 27.6682 17.0312 27.8008 17.0312C27.9334 17.0312 28.0606 17.0839 28.1543 17.1777C28.2481 17.2715 28.3008 17.3986 28.3008 17.5312C28.3008 19.8263 26.5778 23.0312 22.8278 23.0312C22.6952 23.0312 22.568 22.9786 22.4742 22.8848C22.3805 22.791 22.3278 22.6639 22.3278 22.5312C22.3278 22.3986 22.3805 22.2715 22.4742 22.1777C22.568 22.0839 22.6952 22.0312 22.8278 22.0312C25.8598 22.0312 27.3008 19.4553 27.3008 17.5312Z" fill="#5092FF"/>
</svg>
