<svg width="267" height="140" viewBox="0 0 267 140" fill="none" xmlns="http://www.w3.org/2000/svg">
<path d="M262 5H267V0H262V5ZM5 5V0H0V5H5ZM262 36.9142L261.898 41.9131L267 42.0169V36.9142H262ZM262 104.268H267V99.165L261.898 99.2687L262 104.268ZM262 135V140H267V135H262ZM5 135H0V140H5V135ZM5 104.268L4.89837 99.2687L0 99.3683V104.268H5ZM5 36.9142H0V41.8135L4.89837 41.9131L5 36.9142ZM262 0H5V10H262V0ZM267 36.9142V5H257V36.9142H267ZM261.5 41.9091C261.633 41.9091 261.766 41.9104 261.898 41.9131L262.102 31.9152C261.901 31.9111 261.701 31.9091 261.5 31.9091V41.9091ZM238 70.5909C238 53.9348 249.272 41.9091 261.5 41.9091V31.9091C242.248 31.9091 228 50.0431 228 70.5909H238ZM261.5 99.2727C249.272 99.2727 238 87.247 238 70.5909H228C228 91.1388 242.248 109.273 261.5 109.273V99.2727ZM261.898 99.2687C261.766 99.2714 261.633 99.2727 261.5 99.2727V109.273C261.701 109.273 261.901 109.271 262.102 109.267L261.898 99.2687ZM267 135V104.268H257V135H267ZM5 140H262V130H5V140ZM0 104.268V135H10V104.268H0ZM28 70.5909C28 87.0596 16.9632 99.0234 4.89837 99.2687L5.10163 109.267C24.0557 108.881 38 90.9314 38 70.5909H28ZM4.89837 41.9131C16.9632 42.1584 28 54.1222 28 70.5909H38C38 50.2504 24.0557 32.3006 5.10163 31.9152L4.89837 41.9131ZM0 5V36.9142H10V5H0Z" fill="white"/>
</svg>
