<svg width="263" height="136" viewBox="0 0 263 136" fill="none" xmlns="http://www.w3.org/2000/svg">
<mask id="path-1-outside-1_101_396" maskUnits="userSpaceOnUse" x="0" y="0" width="263" height="136" fill="black">
<rect fill="white" width="263" height="136"/>
<path fill-rule="evenodd" clip-rule="evenodd" d="M3 3H260V34.9142C259.834 34.9108 259.667 34.9091 259.5 34.9091C243.76 34.9091 231 49.989 231 68.5909C231 87.1929 243.76 102.273 259.5 102.273C259.667 102.273 259.834 102.271 260 102.268V133H3V102.268C18.5094 101.952 31 86.9955 31 68.5909C31 50.1863 18.5094 35.2295 3 34.9142V3Z"/>
</mask>
<path fill-rule="evenodd" clip-rule="evenodd" d="M3 3H260V34.9142C259.834 34.9108 259.667 34.9091 259.5 34.9091C243.76 34.9091 231 49.989 231 68.5909C231 87.1929 243.76 102.273 259.5 102.273C259.667 102.273 259.834 102.271 260 102.268V133H3V102.268C18.5094 101.952 31 86.9955 31 68.5909C31 50.1863 18.5094 35.2295 3 34.9142V3Z" fill="white"/>
<path d="M260 3H263V0H260V3ZM3 3V0H0V3H3ZM260 34.9142L259.939 37.9135L263 37.9758V34.9142H260ZM260 102.268H263V99.2061L259.939 99.2683L260 102.268ZM260 133V136H263V133H260ZM3 133H0V136H3V133ZM3 102.268L2.93902 99.2683L0 99.328V102.268H3ZM3 34.9142H0V37.8538L2.93902 37.9135L3 34.9142ZM260 0H3V6H260V0ZM263 34.9142V3H257V34.9142H263ZM259.5 37.9091C259.647 37.9091 259.793 37.9106 259.939 37.9135L260.061 31.9148C259.874 31.911 259.687 31.9091 259.5 31.9091V37.9091ZM234 68.5909C234 51.1565 245.867 37.9091 259.5 37.9091V31.9091C241.653 31.9091 228 48.8214 228 68.5909H234ZM259.5 99.2727C245.867 99.2727 234 86.0253 234 68.5909H228C228 88.3604 241.653 105.273 259.5 105.273V99.2727ZM259.939 99.2683C259.793 99.2712 259.647 99.2727 259.5 99.2727V105.273C259.687 105.273 259.874 105.271 260.061 105.267L259.939 99.2683ZM263 133V102.268H257V133H263ZM3 136H260V130H3V136ZM0 102.268V133H6V102.268H0ZM28 68.5909C28 85.834 16.3817 98.995 2.93902 99.2683L3.06098 105.267C20.6372 104.91 34 88.157 34 68.5909H28ZM2.93902 37.9135C16.3817 38.1868 28 51.3479 28 68.5909H34C34 49.0248 20.6372 32.2721 3.06098 31.9148L2.93902 37.9135ZM0 3V34.9142H6V3H0Z" fill="white" mask="url(#path-1-outside-1_101_396)"/>
</svg>
