<svg width="1920" height="400" viewBox="0 0 1920 400" fill="none" xmlns="http://www.w3.org/2000/svg">
<rect width="1920" height="400" fill="#D9D9D9"/>
<path d="M742.376 247V152.455H762.042V188.001H762.642C763.504 186.093 764.75 184.154 766.381 182.185C768.043 180.184 770.198 178.522 772.844 177.199C775.522 175.845 778.846 175.168 782.816 175.168C787.986 175.168 792.757 176.522 797.127 179.23C801.497 181.908 804.99 185.955 807.606 191.371C810.222 196.757 811.53 203.513 811.53 211.638C811.53 219.547 810.253 226.226 807.699 231.673C805.175 237.09 801.728 241.199 797.358 243.999C793.018 246.769 788.156 248.154 782.77 248.154C778.953 248.154 775.707 247.523 773.029 246.261C770.382 245 768.212 243.415 766.52 241.506C764.827 239.567 763.534 237.613 762.642 235.643H761.765V247H742.376ZM761.626 211.545C761.626 215.762 762.211 219.44 763.381 222.579C764.55 225.718 766.243 228.165 768.459 229.919C770.675 231.643 773.367 232.504 776.537 232.504C779.738 232.504 782.447 231.627 784.662 229.873C786.878 228.088 788.556 225.626 789.694 222.487C790.864 219.317 791.449 215.67 791.449 211.545C791.449 207.452 790.879 203.851 789.741 200.743C788.602 197.634 786.925 195.203 784.709 193.449C782.493 191.695 779.769 190.817 776.537 190.817C773.337 190.817 770.628 191.664 768.412 193.357C766.227 195.049 764.55 197.45 763.381 200.558C762.211 203.667 761.626 207.329 761.626 211.545ZM844.873 248.339C840.349 248.339 836.317 247.554 832.778 245.984C829.238 244.384 826.438 242.03 824.376 238.921C822.344 235.782 821.329 231.873 821.329 227.195C821.329 223.256 822.052 219.947 823.499 217.27C824.945 214.592 826.915 212.438 829.408 210.807C831.901 209.176 834.732 207.945 837.902 207.114C841.103 206.283 844.457 205.698 847.966 205.359C852.09 204.929 855.414 204.528 857.938 204.159C860.461 203.759 862.292 203.174 863.431 202.405C864.57 201.635 865.139 200.497 865.139 198.989V198.712C865.139 195.788 864.216 193.526 862.369 191.925C860.554 190.325 857.968 189.525 854.614 189.525C851.074 189.525 848.258 190.31 846.165 191.879C844.073 193.418 842.688 195.357 842.011 197.696L823.822 196.219C824.745 191.91 826.561 188.186 829.269 185.047C831.978 181.877 835.471 179.446 839.749 177.753C844.057 176.029 849.043 175.168 854.706 175.168C858.645 175.168 862.415 175.629 866.016 176.553C869.648 177.476 872.864 178.907 875.665 180.846C878.496 182.785 880.728 185.278 882.359 188.325C883.99 191.341 884.805 194.957 884.805 199.173V247H866.155V237.167H865.601C864.462 239.383 862.939 241.337 861.031 243.03C859.122 244.692 856.83 246 854.152 246.954C851.474 247.877 848.381 248.339 844.873 248.339ZM850.505 234.766C853.398 234.766 855.952 234.197 858.168 233.058C860.384 231.889 862.123 230.319 863.385 228.349C864.647 226.38 865.278 224.148 865.278 221.656V214.131C864.662 214.531 863.816 214.9 862.739 215.239C861.692 215.546 860.507 215.839 859.184 216.116C857.861 216.362 856.537 216.593 855.214 216.808C853.89 216.993 852.69 217.162 851.613 217.316C849.305 217.655 847.289 218.193 845.565 218.932C843.842 219.67 842.503 220.671 841.549 221.933C840.595 223.164 840.118 224.702 840.118 226.549C840.118 229.227 841.087 231.273 843.026 232.689C844.996 234.074 847.489 234.766 850.505 234.766ZM919.729 206.006V247H900.063V176.091H918.806V188.602H919.637C921.206 184.478 923.838 181.215 927.531 178.815C931.224 176.383 935.702 175.168 940.965 175.168C945.889 175.168 950.182 176.245 953.845 178.399C957.507 180.554 960.354 183.631 962.385 187.632C964.417 191.602 965.432 196.342 965.432 201.851V247H945.766V205.359C945.797 201.02 944.689 197.634 942.442 195.203C940.195 192.741 937.102 191.51 933.163 191.51C930.516 191.51 928.177 192.079 926.146 193.218C924.145 194.357 922.576 196.019 921.437 198.204C920.329 200.358 919.76 202.959 919.729 206.006ZM1000.6 206.006V247H980.932V176.091H999.675V188.602H1000.51C1002.08 184.478 1004.71 181.215 1008.4 178.815C1012.09 176.383 1016.57 175.168 1021.83 175.168C1026.76 175.168 1031.05 176.245 1034.71 178.399C1038.38 180.554 1041.22 183.631 1043.25 187.632C1045.29 191.602 1046.3 196.342 1046.3 201.851V247H1026.64V205.359C1026.67 201.02 1025.56 197.634 1023.31 195.203C1021.06 192.741 1017.97 191.51 1014.03 191.51C1011.39 191.51 1009.05 192.079 1007.02 193.218C1005.01 194.357 1003.45 196.019 1002.31 198.204C1001.2 200.358 1000.63 202.959 1000.6 206.006ZM1094.12 248.385C1086.82 248.385 1080.54 246.908 1075.28 243.953C1070.05 240.968 1066.02 236.751 1063.19 231.304C1060.35 225.826 1058.94 219.347 1058.94 211.869C1058.94 204.575 1060.35 198.173 1063.19 192.664C1066.02 187.155 1070 182.862 1075.14 179.784C1080.31 176.706 1086.38 175.168 1093.33 175.168C1098.01 175.168 1102.36 175.922 1106.4 177.43C1110.46 178.907 1114 181.138 1117.01 184.124C1120.06 187.109 1122.43 190.864 1124.12 195.388C1125.82 199.881 1126.66 205.144 1126.66 211.176V216.577H1066.79V204.39H1108.15C1108.15 201.558 1107.54 199.05 1106.3 196.865C1105.07 194.68 1103.36 192.972 1101.18 191.741C1099.03 190.479 1096.52 189.848 1093.65 189.848C1090.67 189.848 1088.02 190.54 1085.71 191.925C1083.44 193.28 1081.65 195.111 1080.36 197.419C1079.07 199.696 1078.41 202.236 1078.37 205.036V216.624C1078.37 220.132 1079.02 223.164 1080.31 225.718C1081.64 228.272 1083.5 230.242 1085.9 231.627C1088.3 233.012 1091.15 233.705 1094.44 233.705C1096.62 233.705 1098.63 233.397 1100.44 232.781C1102.26 232.166 1103.81 231.242 1105.1 230.011C1106.4 228.78 1107.38 227.272 1108.06 225.487L1126.25 226.688C1125.32 231.058 1123.43 234.874 1120.57 238.136C1117.74 241.368 1114.08 243.892 1109.58 245.707C1105.12 247.492 1099.96 248.385 1094.12 248.385ZM1139.5 247V176.091H1158.56V188.463H1159.3C1160.59 184.062 1162.76 180.738 1165.81 178.491C1168.86 176.214 1172.37 175.075 1176.34 175.075C1177.32 175.075 1178.38 175.137 1179.52 175.26C1180.66 175.383 1181.66 175.552 1182.52 175.768V193.218C1181.6 192.941 1180.32 192.695 1178.69 192.479C1177.06 192.264 1175.57 192.156 1174.21 192.156C1171.32 192.156 1168.73 192.787 1166.46 194.049C1164.21 195.28 1162.42 197.004 1161.1 199.219C1159.81 201.435 1159.16 203.99 1159.16 206.883V247H1139.5Z" fill="#4D4D4D"/>
</svg>
