<svg width="30" height="40" viewBox="0 0 30 40" fill="none" xmlns="http://www.w3.org/2000/svg">
<path d="M0 0H30V40L15 29.429L0 40V0Z" fill="#2395FF"/>
<path d="M14.5721 20.169C13.6706 20.169 12.8677 20.0141 12.1634 19.7042C11.4631 19.3903 10.9097 18.9596 10.5032 18.4123C10.1007 17.8609 9.89347 17.225 9.88139 16.5046H12.5135C12.5296 16.8065 12.6282 17.0721 12.8093 17.3015C12.9944 17.5269 13.2399 17.7019 13.5458 17.8267C13.8517 17.9515 14.1958 18.0138 14.5781 18.0138C14.9766 18.0138 15.3287 17.9434 15.6346 17.8026C15.9405 17.6617 16.1799 17.4665 16.353 17.217C16.526 16.9674 16.6126 16.6797 16.6126 16.3537C16.6126 16.0237 16.52 15.7319 16.3349 15.4783C16.1538 15.2208 15.8922 15.0195 15.5501 14.8746C15.212 14.7298 14.8095 14.6573 14.3427 14.6573H13.1896V12.7376H14.3427C14.7371 12.7376 15.0852 12.6692 15.3871 12.5323C15.6929 12.3955 15.9304 12.2063 16.0994 11.9648C16.2685 11.7193 16.353 11.4336 16.353 11.1076C16.353 10.7977 16.2785 10.526 16.1296 10.2926C15.9847 10.0552 15.7795 9.87003 15.5138 9.73722C15.2522 9.6044 14.9464 9.538 14.5962 9.538C14.2421 9.538 13.9181 9.60239 13.6243 9.73118C13.3305 9.85594 13.0951 10.035 12.918 10.2685C12.7409 10.5019 12.6463 10.7756 12.6342 11.0895H10.1289C10.141 10.3771 10.3442 9.74929 10.7386 9.20597C11.133 8.66264 11.6643 8.23804 12.3324 7.93217C13.0045 7.62228 13.7631 7.46733 14.6083 7.46733C15.4615 7.46733 16.2081 7.62228 16.848 7.93217C17.4879 8.24207 17.985 8.66063 18.3391 9.18785C18.6973 9.71106 18.8744 10.2987 18.8704 10.9506C18.8744 11.6429 18.6591 12.2204 18.2244 12.6832C17.7938 13.1461 17.2324 13.4399 16.5401 13.5646V13.6612C17.4497 13.7779 18.1419 14.0939 18.6168 14.609C19.0958 15.1201 19.3332 15.7601 19.3292 16.5288C19.3332 17.2331 19.13 17.8589 18.7195 18.4062C18.313 18.9536 17.7515 19.3842 17.0352 19.6982C16.3188 20.0121 15.4978 20.169 14.5721 20.169Z" fill="white"/>
</svg>
