<svg width="30" height="40" viewBox="0 0 30 40" fill="none" xmlns="http://www.w3.org/2000/svg">
<path d="M0 0H30V40L15 29.429L0 40V0Z" fill="#2395FF"/>
<path d="M10.0021 20V18.1165L14.4031 14.0415C14.7773 13.6793 15.0913 13.3533 15.3448 13.0636C15.6024 12.7738 15.7976 12.4901 15.9304 12.2124C16.0632 11.9306 16.1296 11.6268 16.1296 11.3008C16.1296 10.9386 16.0471 10.6267 15.8821 10.3651C15.7171 10.0994 15.4917 9.89619 15.206 9.75533C14.9202 9.61044 14.5962 9.538 14.234 9.538C13.8557 9.538 13.5257 9.61446 13.244 9.7674C12.9622 9.92034 12.7449 10.1397 12.592 10.4254C12.439 10.7112 12.3626 11.0513 12.3626 11.4457H9.88139C9.88139 10.6367 10.0645 9.93442 10.4308 9.33878C10.797 8.74313 11.3101 8.28232 11.9702 7.95632C12.6302 7.63033 13.3909 7.46733 14.2521 7.46733C15.1375 7.46733 15.9083 7.62429 16.5643 7.93821C17.2243 8.24811 17.7375 8.67874 18.1037 9.23011C18.4699 9.78149 18.6531 10.4134 18.6531 11.1257C18.6531 11.5926 18.5605 12.0534 18.3754 12.5082C18.1942 12.9629 17.8703 13.468 17.4034 14.0234C16.9366 14.5748 16.2785 15.2369 15.4293 16.0096L13.6243 17.7784V17.8629H18.8161V20H10.0021Z" fill="white"/>
</svg>
