<svg width="40" height="40" viewBox="0 0 40 40" fill="none" xmlns="http://www.w3.org/2000/svg">
<g clip-path="url(#clip0_1076_2962)">
<path d="M19.7279 29.7656L9.72788 33.5938C9.26694 33.7656 8.78256 33.4141 8.806 32.9219L9.35288 22.2266C9.36069 22.0625 9.306 21.8984 9.20444 21.7656L2.47006 13.4375C2.15756 13.0547 2.34506 12.4844 2.82163 12.3516L13.1654 9.57031C13.3294 9.52344 13.4701 9.42188 13.556 9.28125L19.3998 0.3125C19.6654 -0.101562 20.2748 -0.101562 20.5404 0.3125L26.3841 9.28906C26.4779 9.42969 26.6185 9.53125 26.7748 9.57812L37.1185 12.3594C37.5951 12.4844 37.7826 13.0625 37.4701 13.4453L30.7435 21.7734C30.6419 21.9063 30.5873 22.0703 30.5951 22.2344L31.1419 32.9297C31.1654 33.4219 30.681 33.7734 30.2201 33.6016L20.2201 29.7734C20.056 29.7109 19.8841 29.7109 19.7279 29.7656Z" fill="#FFB636"/>
<path d="M35.6323 4.0385L32.4291 0.835379C32.3354 0.741629 32.2104 0.702567 32.0854 0.718192C31.9604 0.733817 31.8432 0.811942 31.7807 0.921317L28.476 7.42913C28.3823 7.59319 28.4135 7.7885 28.5463 7.92132C28.6244 7.99944 28.7338 8.0385 28.8354 8.0385C28.9057 8.0385 28.976 8.02288 29.0385 7.98382L35.5385 4.68694C35.6479 4.62444 35.726 4.51507 35.7416 4.38225C35.7651 4.25725 35.7182 4.13225 35.6323 4.0385ZM11.6479 7.43694L8.34319 0.929129C8.28069 0.819754 8.17132 0.741629 8.0385 0.726004C7.9135 0.710379 7.78069 0.749442 7.69475 0.843192L4.49163 4.04632C4.39788 4.14007 4.35882 4.26507 4.37444 4.39007C4.39007 4.51507 4.46819 4.63225 4.57757 4.69475L11.0854 7.99944C11.1479 8.0385 11.2182 8.05413 11.2885 8.05413C11.3979 8.05413 11.4994 8.01507 11.5776 7.93694C11.7104 7.79632 11.7338 7.59319 11.6479 7.43694ZM22.6401 39.4682L20.3744 32.5307C20.3588 32.4604 20.3198 32.3979 20.2729 32.351C20.1948 32.2729 20.0932 32.2338 19.9838 32.2338C19.7963 32.2338 19.6401 32.3588 19.5854 32.5385L17.3198 39.476C17.2885 39.601 17.3119 39.7338 17.3901 39.8354C17.4682 39.9369 17.5854 39.9994 17.7182 39.9994H22.2416C22.3666 39.9994 22.4916 39.9369 22.5698 39.8354C22.6557 39.726 22.6791 39.5932 22.6401 39.4682Z" fill="#FFD469"/>
</g>
<defs>
<clipPath id="clip0_1076_2962">
<rect width="40" height="40" fill="white"/>
</clipPath>
</defs>
</svg>
