<svg width="24" height="24" viewBox="0 0 24 24" fill="none" xmlns="http://www.w3.org/2000/svg">
<path opacity="0.2" d="M7.125 10.7812V22.5625H2.25C2.03451 22.5625 1.82785 22.467 1.67548 22.2971C1.5231 22.1271 1.4375 21.8966 1.4375 21.6562V11.6875C1.4375 11.4471 1.5231 11.2166 1.67548 11.0467C1.82785 10.8767 2.03451 10.7812 2.25 10.7812H7.125Z" fill="black"/>
<path d="M22.7656 8.07609C22.5368 7.78691 22.2555 7.55534 21.9403 7.39674C21.6251 7.23815 21.2833 7.15617 20.9375 7.15625H15.25V5.34375C15.25 4.14199 14.822 2.98945 14.0601 2.13967C13.2983 1.2899 12.2649 0.8125 11.1875 0.8125C11.0366 0.81238 10.8886 0.859162 10.7601 0.947601C10.6317 1.03604 10.5279 1.16264 10.4603 1.3132L6.62328 9.875H2.25C1.81902 9.875 1.4057 10.066 1.10095 10.4059C0.796205 10.7458 0.625 11.2068 0.625 11.6875V21.6562C0.625 22.137 0.796205 22.598 1.10095 22.9379C1.4057 23.2778 1.81902 23.4688 2.25 23.4688H19.7188C20.3126 23.469 20.8861 23.2274 21.3315 22.7894C21.777 22.3513 22.0637 21.747 22.138 21.0898L23.3567 10.2148C23.3999 9.83198 23.3695 9.44324 23.2676 9.07448C23.1657 8.70572 22.9946 8.36538 22.7656 8.07609ZM2.25 11.6875H6.3125V21.6562H2.25V11.6875ZM21.7439 9.98828L20.5252 20.8633C20.5004 21.0823 20.4048 21.2838 20.2563 21.4298C20.1079 21.5758 19.9167 21.6563 19.7188 21.6562H7.9375V10.9954L11.6659 2.67711C12.2185 2.80047 12.7156 3.13358 13.0728 3.61977C13.43 4.10596 13.6252 4.71517 13.625 5.34375V8.0625C13.625 8.30285 13.7106 8.53336 13.863 8.70332C14.0153 8.87327 14.222 8.96875 14.4375 8.96875H20.9375C21.0528 8.96871 21.1668 8.99603 21.2719 9.04891C21.377 9.10179 21.4708 9.17902 21.5471 9.27546C21.6233 9.37189 21.6803 9.48533 21.7143 9.60823C21.7482 9.73114 21.7583 9.86069 21.7439 9.98828Z" fill="black"/>
</svg>
