<svg width="29" height="29" viewBox="0 0 29 29" fill="none" xmlns="http://www.w3.org/2000/svg">
<path d="M26.625 10.6752V1.83333C26.625 1.44656 26.4714 1.07563 26.1979 0.802136C25.9244 0.528645 25.5534 0.375 25.1667 0.375H23.7083C20.8223 3.26104 15.4002 4.87687 12.0417 5.64396V21.356C15.4002 22.1231 20.8223 23.739 23.7083 26.625H25.1667C25.5534 26.625 25.9244 26.4714 26.1979 26.1979C26.4714 25.9244 26.625 25.5534 26.625 25.1667V16.3248C27.2517 16.1637 27.8071 15.7987 28.2036 15.2873C28.6002 14.7759 28.8154 14.1471 28.8154 13.5C28.8154 12.8529 28.6002 12.2241 28.2036 11.7127C27.8071 11.2013 27.2517 10.8364 26.625 10.6752ZM3.29167 6.20833C2.51812 6.20833 1.77625 6.51562 1.22927 7.06261C0.682291 7.60959 0.375 8.35145 0.375 9.125L0.375 17.875C0.375 18.6485 0.682291 19.3904 1.22927 19.9374C1.77625 20.4844 2.51812 20.7917 3.29167 20.7917H4.75L6.20833 28.0833H9.125V6.20833H3.29167Z" fill="white"/>
</svg>
