<svg width="39" height="39" viewBox="0 0 39 39" fill="none" xmlns="http://www.w3.org/2000/svg">
<path d="M19.75 4.75C10.918 4.75 3.75 11.918 3.75 20.75C3.75 29.582 10.918 36.75 19.75 36.75C28.582 36.75 35.75 29.582 35.75 20.75C35.75 11.918 28.582 4.75 19.75 4.75ZM19.75 11.15C22.838 11.15 25.35 13.662 25.35 16.75C25.35 19.838 22.838 22.35 19.75 22.35C16.662 22.35 14.15 19.838 14.15 16.75C14.15 13.662 16.662 11.15 19.75 11.15ZM19.75 33.55C16.502 33.55 12.662 32.238 9.926 28.942C12.7286 26.7432 16.1878 25.5481 19.75 25.5481C23.3122 25.5481 26.7714 26.7432 29.574 28.942C26.838 32.238 22.998 33.55 19.75 33.55Z" fill="white"/>
</svg>
