<svg width="39" height="39" viewBox="0 0 39 39" fill="none" xmlns="http://www.w3.org/2000/svg">
<path d="M31.85 34.125L21.6125 23.8875C20.8 24.5375 19.8656 25.0521 18.8094 25.4312C17.7531 25.8104 16.6292 26 15.4375 26C12.4854 26 9.98725 24.9773 7.943 22.932C5.89875 20.8867 4.87608 18.3885 4.875 15.4375C4.875 12.4854 5.89767 9.98725 7.943 7.943C9.98833 5.89875 12.4865 4.87608 15.4375 4.875C18.3896 4.875 20.8878 5.89767 22.932 7.943C24.9763 9.98833 25.9989 12.4865 26 15.4375C26 16.6292 25.8104 17.7531 25.4312 18.8094C25.0521 19.8656 24.5375 20.8 23.8875 21.6125L34.125 31.85L31.85 34.125ZM15.4375 22.75C17.4688 22.75 19.1956 22.0388 20.618 20.6164C22.0404 19.194 22.7511 17.4677 22.75 15.4375C22.75 13.4062 22.0388 11.6794 20.6164 10.257C19.194 8.83458 17.4677 8.12392 15.4375 8.125C13.4062 8.125 11.6794 8.83621 10.257 10.2586C8.83458 11.681 8.12392 13.4073 8.125 15.4375C8.125 17.4688 8.83621 19.1956 10.2586 20.618C11.681 22.0404 13.4073 22.7511 15.4375 22.75Z" fill="white"/>
</svg>
