<svg width="37" height="29" viewBox="0 0 37 29" fill="none" xmlns="http://www.w3.org/2000/svg">
<path d="M34.2482 13.6994H33.8138L33.7531 14.1295L32.1412 25.5538C31.9668 26.7897 30.9238 27.6994 29.7032 27.6994H7.18834C5.96766 27.6994 4.92465 26.7897 4.75023 25.5538C4.75023 25.5538 4.75022 25.5538 4.75022 25.5538L3.13837 14.1295L3.07768 13.6994H2.64328H2.14945C1.61322 13.6994 1.16797 13.2576 1.16797 12.6994V11.6994C1.16797 11.1412 1.61322 10.6994 2.14945 10.6994H6.3063H6.56277L6.7124 10.4911L13.3037 1.31479C13.784 0.646175 14.7039 0.501094 15.3605 0.984587C16.0209 1.47084 16.1695 2.41173 15.6866 3.08407L10.7851 9.9077L10.2165 10.6994H11.1912H25.7003H26.675L26.1063 9.9077L21.2049 3.08401L21.2049 3.084C20.722 2.41175 20.8707 1.4708 21.531 0.984514L21.5311 0.984495C22.1875 0.501045 23.1075 0.646055 23.5878 1.31472L30.1791 10.4911L30.3287 10.6994H30.5852H34.742C35.2783 10.6994 35.7235 11.1412 35.7235 11.6994V12.6994C35.7235 13.2576 35.2783 13.6994 34.742 13.6994H34.2482ZM20.4272 22.6994V15.6994C20.4272 14.6007 19.5459 13.6994 18.4457 13.6994C17.3456 13.6994 16.4643 14.6007 16.4643 15.6994V22.6994C16.4643 23.7981 17.3456 24.6994 18.4457 24.6994C19.5459 24.6994 20.4272 23.7981 20.4272 22.6994ZM27.3408 22.6994V15.6994C27.3408 14.6007 26.4595 13.6994 25.3593 13.6994C24.2591 13.6994 23.3778 14.6007 23.3778 15.6994V22.6994C23.3778 23.7981 24.2591 24.6994 25.3593 24.6994C26.4595 24.6994 27.3408 23.7981 27.3408 22.6994ZM13.5136 22.6994V15.6994C13.5136 14.6007 12.6324 13.6994 11.5322 13.6994C10.432 13.6994 9.55069 14.6007 9.55069 15.6994V22.6994C9.55069 23.7981 10.432 24.6994 11.5322 24.6994C12.6324 24.6994 13.5136 23.7981 13.5136 22.6994Z" fill="white" stroke="black"/>
</svg>
