<svg width="61" height="66" viewBox="0 0 61 66" fill="none" xmlns="http://www.w3.org/2000/svg">
<path d="M60.125 47.8132C60.125 49.064 59.4338 50.1502 58.3804 50.7098L32.3763 65.3248C31.8496 65.7198 31.1913 65.9173 30.5 65.9173C29.8088 65.9173 29.1504 65.7198 28.6238 65.3248L2.6196 50.7098C2.09187 50.4325 1.65024 50.0159 1.34267 49.5052C1.0351 48.9945 0.873357 48.4093 0.875013 47.8132V18.1882C0.875013 16.9373 1.56626 15.8511 2.6196 15.2915L28.6238 0.676485C29.1504 0.281485 29.8088 0.0839844 30.5 0.0839844C31.1913 0.0839844 31.8496 0.281485 32.3763 0.676485L58.3804 15.2915C59.4338 15.8511 60.125 16.9373 60.125 18.1882V47.8132Z" fill="#343434"/>
</svg>
