<svg width="43" height="43" viewBox="0 0 43 43" fill="none" xmlns="http://www.w3.org/2000/svg">
<rect x="0.5" width="42.5" height="42.5" rx="21.25" fill="#1C0808"/>
<path d="M31.25 32.5L23.375 24.625C22.75 25.125 22.0312 25.5208 21.2187 25.8125C20.4062 26.1042 19.5417 26.25 18.625 26.25C16.3542 26.25 14.4325 25.4633 12.86 23.89C11.2875 22.3167 10.5008 20.395 10.5 18.125C10.5 15.8542 11.2867 13.9325 12.86 12.36C14.4333 10.7875 16.355 10.0008 18.625 10C20.8958 10 22.8175 10.7867 24.39 12.36C25.9625 13.9333 26.7492 15.855 26.75 18.125C26.75 19.0417 26.6042 19.9062 26.3125 20.7187C26.0208 21.5312 25.625 22.25 25.125 22.875L33 30.75L31.25 32.5ZM18.625 23.75C20.1875 23.75 21.5158 23.2029 22.61 22.1088C23.7042 21.0146 24.2508 19.6867 24.25 18.125C24.25 16.5625 23.7029 15.2342 22.6088 14.14C21.5146 13.0458 20.1867 12.4992 18.625 12.5C17.0625 12.5 15.7342 13.0471 14.64 14.1413C13.5458 15.2354 12.9992 16.5633 13 18.125C13 19.6875 13.5471 21.0158 14.6413 22.11C15.7354 23.2042 17.0633 23.7508 18.625 23.75Z" fill="white"/>
</svg>
