<svg width="20" height="21" viewBox="0 0 20 21" fill="none" xmlns="http://www.w3.org/2000/svg">
<path d="M2 0.957031H18C19.1 0.957031 20 1.85703 20 2.95703V14.957C20 16.057 19.1 16.957 18 16.957H4L0 20.957V2.95703C0 1.85703 0.9 0.957031 2 0.957031ZM5 12.957H15C15.55 12.957 16 12.507 16 11.957C16 11.407 15.55 10.957 15 10.957H5C4.45 10.957 4 11.407 4 11.957C4 12.507 4.45 12.957 5 12.957ZM5 9.95703H15C15.55 9.95703 16 9.50703 16 8.95703C16 8.40703 15.55 7.95703 15 7.95703H5C4.45 7.95703 4 8.40703 4 8.95703C4 9.50703 4.45 9.95703 5 9.95703ZM5 6.95703H15C15.55 6.95703 16 6.50703 16 5.95703C16 5.40703 15.55 4.95703 15 4.95703H5C4.45 4.95703 4 5.40703 4 5.95703C4 6.50703 4.45 6.95703 5 6.95703Z" fill="#515151" fill-opacity="0.7"/>
</svg>
