<svg width="23" height="23" viewBox="0 0 23 23" fill="none" xmlns="http://www.w3.org/2000/svg">
<path d="M21.25 22.5L13.375 14.625C12.75 15.125 12.0312 15.5208 11.2187 15.8125C10.4062 16.1042 9.54167 16.25 8.625 16.25C6.35417 16.25 4.4325 15.4633 2.86 13.89C1.2875 12.3167 0.500833 10.395 0.5 8.125C0.5 5.85417 1.28667 3.9325 2.86 2.36C4.43333 0.7875 6.355 0.000833333 8.625 0C10.8958 0 12.8175 0.786667 14.39 2.36C15.9625 3.93333 16.7492 5.855 16.75 8.125C16.75 9.04167 16.6042 9.90625 16.3125 10.7187C16.0208 11.5312 15.625 12.25 15.125 12.875L23 20.75L21.25 22.5ZM8.625 13.75C10.1875 13.75 11.5158 13.2029 12.61 12.1088C13.7042 11.0146 14.2508 9.68667 14.25 8.125C14.25 6.5625 13.7029 5.23417 12.6088 4.14C11.5146 3.04583 10.1867 2.49917 8.625 2.5C7.0625 2.5 5.73417 3.04708 4.64 4.14125C3.54583 5.23542 2.99917 6.56333 3 8.125C3 9.6875 3.54708 11.0158 4.64125 12.11C5.73542 13.2042 7.06333 13.7508 8.625 13.75Z" fill="white"/>
</svg>
