<svg width="26" height="20" viewBox="0 0 26 20" fill="none" xmlns="http://www.w3.org/2000/svg">
<path d="M20.25 9C20.25 9.19891 20.329 9.38968 20.4697 9.53033C20.6103 9.67098 20.8011 9.75 21 9.75C21.1989 9.75 21.3897 9.67098 21.5303 9.53033C21.671 9.38968 21.75 9.19891 21.75 9V5.75H25C25.1989 5.75 25.3897 5.67098 25.5303 5.53033C25.671 5.38968 25.75 5.19891 25.75 5C25.75 4.80109 25.671 4.61032 25.5303 4.46967C25.3897 4.32902 25.1989 4.25 25 4.25H21.75V1C21.75 0.801088 21.671 0.610322 21.5303 0.46967C21.3897 0.329018 21.1989 0.25 21 0.25C20.8011 0.25 20.6103 0.329018 20.4697 0.46967C20.329 0.610322 20.25 0.801088 20.25 1V4.25H17C16.8011 4.25 16.6103 4.32902 16.4697 4.46967C16.329 4.61032 16.25 4.80109 16.25 5C16.25 5.19891 16.329 5.38968 16.4697 5.53033C16.6103 5.67098 16.8011 5.75 17 5.75H20.25V9Z" fill="#1C0808"/>
<path fill-rule="evenodd" clip-rule="evenodd" d="M5 6C5 4.93913 5.42143 3.92172 6.17157 3.17157C6.92172 2.42143 7.93913 2 9 2C10.0609 2 11.0783 2.42143 11.8284 3.17157C12.5786 3.92172 13 4.93913 13 6C13 7.06087 12.5786 8.07828 11.8284 8.82843C11.0783 9.57857 10.0609 10 9 10C7.93913 10 6.92172 9.57857 6.17157 8.82843C5.42143 8.07828 5 7.06087 5 6ZM5 12C3.67392 12 2.40215 12.5268 1.46447 13.4645C0.526784 14.4021 0 15.6739 0 17C0 17.7956 0.316071 18.5587 0.87868 19.1213C1.44129 19.6839 2.20435 20 3 20H15C15.7956 20 16.5587 19.6839 17.1213 19.1213C17.6839 18.5587 18 17.7956 18 17C18 15.6739 17.4732 14.4021 16.5355 13.4645C15.5979 12.5268 14.3261 12 13 12H5Z" fill="#1C0808"/>
</svg>
