<svg width="1047" height="422" viewBox="0 0 1047 422" fill="none" xmlns="http://www.w3.org/2000/svg">
<mask id="path-1-outside-1_1666_2391" maskUnits="userSpaceOnUse" x="0" y="0.626953" width="751" height="421" fill="black">
<rect fill="white" y="0.626953" width="751" height="421"/>
<path fill-rule="evenodd" clip-rule="evenodd" d="M706.664 1.92215C706.99 25.0045 725.788 43.6193 748.941 43.6484C749.185 45.6071 749.31 47.6024 749.31 49.627V372.228C749.31 374.378 749.169 376.494 748.895 378.569C728.649 381.234 712.911 398.204 712.164 418.996C708.676 419.802 705.043 420.228 701.31 420.228H1V1.62695H701.31C703.12 1.62695 704.906 1.7271 706.664 1.92215Z"/>
</mask>
<path fill-rule="evenodd" clip-rule="evenodd" d="M706.664 1.92215C706.99 25.0045 725.788 43.6193 748.941 43.6484C749.185 45.6071 749.31 47.6024 749.31 49.627V372.228C749.31 374.378 749.169 376.494 748.895 378.569C728.649 381.234 712.911 398.204 712.164 418.996C708.676 419.802 705.043 420.228 701.31 420.228H1V1.62695H701.31C703.12 1.62695 704.906 1.7271 706.664 1.92215Z" fill="white"/>
<path d="M706.664 1.92215L707.663 1.90802L707.651 1.02559L706.774 0.928248L706.664 1.92215ZM748.941 43.6484L749.934 43.5251L749.825 42.6495L748.942 42.6484L748.941 43.6484ZM748.895 378.569L749.025 379.561L749.786 379.461L749.886 378.7L748.895 378.569ZM712.164 418.996L712.39 419.97L713.136 419.797L713.164 419.031L712.164 418.996ZM1 420.228H0V421.228H1V420.228ZM1 1.62695V0.626953H0V1.62695H1ZM705.664 1.93627C705.997 25.5642 725.24 44.6186 748.94 44.6484L748.942 42.6484C726.336 42.62 707.982 24.4449 707.663 1.90802L705.664 1.93627ZM750.31 49.627C750.31 47.5611 750.182 45.5246 749.934 43.5251L747.949 43.7717C748.187 45.6896 748.31 47.6437 748.31 49.627H750.31ZM750.31 372.228V49.627H748.31V372.228H750.31ZM749.886 378.7C750.166 376.582 750.31 374.422 750.31 372.228H748.31C748.31 374.334 748.172 376.407 747.903 378.438L749.886 378.7ZM713.164 419.031C713.893 398.733 729.259 382.162 749.025 379.561L748.764 377.578C728.039 380.306 711.929 397.676 711.165 418.96L713.164 419.031ZM701.31 421.228C705.119 421.228 708.828 420.793 712.39 419.97L711.939 418.021C708.525 418.811 704.967 419.228 701.31 419.228V421.228ZM1 421.228H701.31V419.228H1V421.228ZM0 1.62695V420.228H2V1.62695H0ZM701.31 0.626953H1V2.62695H701.31V0.626953ZM706.774 0.928248C704.98 0.729143 703.157 0.626953 701.31 0.626953V2.62695C703.083 2.62695 704.832 2.72505 706.553 2.91605L706.774 0.928248Z" fill="black" mask="url(#path-1-outside-1_1666_2391)"/>
<mask id="path-3-outside-2_1666_2391" maskUnits="userSpaceOnUse" x="747.887" y="0.626953" width="299" height="421" fill="black">
<rect fill="white" x="747.887" y="0.626953" width="299" height="421"/>
<path fill-rule="evenodd" clip-rule="evenodd" d="M749.256 43.6477C772.306 43.5091 790.99 24.9488 791.327 1.94543C793.151 1.73507 795.006 1.62695 796.887 1.62695H997.463C1023.97 1.62695 1045.46 23.1173 1045.46 49.627V372.228C1045.46 398.738 1023.97 420.228 997.463 420.228H796.887L796.808 420.228C796.64 396.99 777.75 378.205 754.473 378.205C752.72 378.205 750.992 378.312 749.295 378.519C749.026 376.46 748.887 374.36 748.887 372.228V49.627C748.887 47.6022 749.012 45.6066 749.256 43.6477Z"/>
</mask>
<path fill-rule="evenodd" clip-rule="evenodd" d="M749.256 43.6477C772.306 43.5091 790.99 24.9488 791.327 1.94543C793.151 1.73507 795.006 1.62695 796.887 1.62695H997.463C1023.97 1.62695 1045.46 23.1173 1045.46 49.627V372.228C1045.46 398.738 1023.97 420.228 997.463 420.228H796.887L796.808 420.228C796.64 396.99 777.75 378.205 754.473 378.205C752.72 378.205 750.992 378.312 749.295 378.519C749.026 376.46 748.887 374.36 748.887 372.228V49.627C748.887 47.6022 749.012 45.6066 749.256 43.6477Z" fill="#1C0808"/>
<path d="M749.256 43.6477L749.249 42.6477L748.371 42.653L748.263 43.5243L749.256 43.6477ZM791.327 1.94543L791.213 0.952016L790.34 1.05264L790.327 1.93077L791.327 1.94543ZM796.887 420.228L796.886 421.228H796.887V420.228ZM796.808 420.228L795.808 420.235L795.816 421.227L796.808 421.228L796.808 420.228ZM749.295 378.519L748.304 378.648L748.432 379.631L749.416 379.511L749.295 378.519ZM749.262 44.6476C772.857 44.5058 791.982 25.5071 792.327 1.9601L790.327 1.93077C789.998 24.3904 771.756 42.5124 749.249 42.6477L749.262 44.6476ZM796.887 0.626953C794.968 0.626953 793.075 0.73728 791.213 0.952016L791.442 2.93885C793.228 2.73286 795.045 2.62695 796.887 2.62695V0.626953ZM997.463 0.626953H796.887V2.62695H997.463V0.626953ZM1046.46 49.627C1046.46 22.565 1024.53 0.626953 997.463 0.626953V2.62695C1023.42 2.62695 1044.46 23.6696 1044.46 49.627H1046.46ZM1046.46 372.228V49.627H1044.46V372.228H1046.46ZM997.463 421.228C1024.53 421.228 1046.46 399.29 1046.46 372.228H1044.46C1044.46 398.185 1023.42 419.228 997.463 419.228V421.228ZM796.887 421.228H997.463V419.228H796.887V421.228ZM796.808 421.228L796.886 421.228L796.888 419.228L796.809 419.228L796.808 421.228ZM754.473 379.205C777.2 379.205 795.644 397.547 795.808 420.235L797.808 420.221C797.636 396.434 778.3 377.205 754.473 377.205V379.205ZM749.416 379.511C751.073 379.309 752.761 379.205 754.473 379.205V377.205C752.68 377.205 750.911 377.314 749.174 377.526L749.416 379.511ZM747.887 372.228C747.887 374.404 748.029 376.547 748.304 378.648L750.287 378.389C750.023 376.373 749.887 374.317 749.887 372.228H747.887ZM747.887 49.627V372.228H749.887V49.627H747.887ZM748.263 43.5243C748.015 45.5241 747.887 47.5608 747.887 49.627H749.887C749.887 47.6435 750.01 45.6891 750.248 43.771L748.263 43.5243Z" fill="#1C0808" mask="url(#path-3-outside-2_1666_2391)"/>
</svg>
