<svg width="125" height="129" viewBox="0 0 125 129" fill="none" xmlns="http://www.w3.org/2000/svg">
<path d="M62.5092 16.2021L111.228 100.585H13.7907L62.5092 16.2021Z" fill="#1C0808"/>
<path d="M50.1957 7.82138C55.5462 -1.85452 69.4537 -1.85452 74.8042 7.82138L123.221 95.3358C128.409 104.712 121.627 116.213 110.914 116.213H14.0923C3.37256 116.213 -3.40932 104.712 1.77866 95.3358L50.1957 7.82763V7.82138ZM68.7412 91.2104C68.7676 90.3742 68.6258 89.5412 68.3241 88.7608C68.0223 87.9805 67.5668 87.2687 66.9847 86.6679C66.4025 86.067 65.7055 85.5892 64.9351 85.263C64.1647 84.9367 63.3366 84.7685 62.5 84.7685C61.6633 84.7685 60.8352 84.9367 60.0648 85.263C59.2944 85.5892 58.5974 86.067 58.0153 86.6679C57.4331 87.2687 56.9776 87.9805 56.6759 88.7608C56.3741 89.5412 56.2323 90.3742 56.2588 91.2104C56.3101 92.8315 56.9901 94.369 58.155 95.4976C59.3198 96.6262 60.8781 97.2572 62.5 97.2572C64.1219 97.2572 65.6801 96.6262 66.845 95.4976C68.0098 94.369 68.6899 92.8315 68.7412 91.2104ZM67.1223 42.1246C66.9603 40.9474 66.3573 39.8756 65.4353 39.126C64.5132 38.3764 63.3409 38.005 62.1554 38.0867C60.97 38.1685 59.8598 38.6975 59.0494 39.5666C58.239 40.4357 57.7889 41.5801 57.7901 42.7684L57.8151 70.9023L57.8589 71.5398C58.0209 72.717 58.6239 73.7888 59.5459 74.5384C60.468 75.288 61.6403 75.6595 62.8257 75.5777C64.0112 75.4959 65.1214 74.967 65.9318 74.0979C66.7422 73.2287 67.1922 72.0843 67.191 70.896L67.166 42.7559L67.1223 42.1246Z" fill="#E9B910"/>
</svg>
