<svg width="29" height="29" viewBox="0 0 29 29" fill="none" xmlns="http://www.w3.org/2000/svg">
<path fill-rule="evenodd" clip-rule="evenodd" d="M11.0374 4.96867C10.382 5.97883 10.15 7.24033 10.15 8.05556V9.66667H18.85V8.05556C18.85 7.23872 18.618 5.97883 17.9641 4.96867C17.3623 4.04067 16.3473 3.22222 14.5 3.22222C12.6527 3.22222 11.6377 4.04067 11.0374 4.96867ZM21.75 9.66667V8.05556C21.75 6.72317 21.402 4.76244 20.3174 3.08689C19.1777 1.32917 17.2927 0 14.5 0C11.7073 0 9.8223 1.32917 8.6826 3.08689C7.598 4.76244 7.25 6.72317 7.25 8.05556V9.66667H1.45C1.06544 9.66667 0.696623 9.83641 0.424695 10.1386C0.152767 10.4407 0 10.8505 0 11.2778C0 11.7051 0.152767 12.1149 0.424695 12.417C0.696623 12.7191 1.06544 12.8889 1.45 12.8889H1.58775L2.90725 27.55C2.9432 27.9474 3.11071 28.3158 3.3773 28.5837C3.64389 28.8517 3.99054 29 4.35 29H24.65C25.0095 29 25.3561 28.8517 25.6227 28.5837C25.8893 28.3158 26.0568 27.9474 26.0928 27.55L27.4123 12.8889H27.55C27.9346 12.8889 28.3034 12.7191 28.5753 12.417C28.8472 12.1149 29 11.7051 29 11.2778C29 10.8505 28.8472 10.4407 28.5753 10.1386C28.3034 9.83641 27.9346 9.66667 27.55 9.66667H21.75ZM10.15 17.7222C10.15 17.2949 9.99723 16.8851 9.7253 16.583C9.45338 16.2809 9.08456 16.1111 8.7 16.1111C8.31544 16.1111 7.94662 16.2809 7.6747 16.583C7.40277 16.8851 7.25 17.2949 7.25 17.7222V20.9444C7.25 21.3717 7.40277 21.7815 7.6747 22.0837C7.94662 22.3858 8.31544 22.5556 8.7 22.5556C9.08456 22.5556 9.45338 22.3858 9.7253 22.0837C9.99723 21.7815 10.15 21.3717 10.15 20.9444V17.7222ZM15.95 17.7222C15.95 17.2949 15.7972 16.8851 15.5253 16.583C15.2534 16.2809 14.8846 16.1111 14.5 16.1111C14.1154 16.1111 13.7466 16.2809 13.4747 16.583C13.2028 16.8851 13.05 17.2949 13.05 17.7222V20.9444C13.05 21.3717 13.2028 21.7815 13.4747 22.0837C13.7466 22.3858 14.1154 22.5556 14.5 22.5556C14.8846 22.5556 15.2534 22.3858 15.5253 22.0837C15.7972 21.7815 15.95 21.3717 15.95 20.9444V17.7222ZM21.75 17.7222C21.75 17.2949 21.5972 16.8851 21.3253 16.583C21.0534 16.2809 20.6846 16.1111 20.3 16.1111C19.9154 16.1111 19.5466 16.2809 19.2747 16.583C19.0028 16.8851 18.85 17.2949 18.85 17.7222V20.9444C18.85 21.3717 19.0028 21.7815 19.2747 22.0837C19.5466 22.3858 19.9154 22.5556 20.3 22.5556C20.6846 22.5556 21.0534 22.3858 21.3253 22.0837C21.5972 21.7815 21.75 21.3717 21.75 20.9444V17.7222Z" fill="white"/>
</svg>
