<svg width="38" height="38" viewBox="0 0 38 38" fill="none" xmlns="http://www.w3.org/2000/svg">
<path d="M19 3C10.168 3 3 10.168 3 19C3 27.832 10.168 35 19 35C27.832 35 35 27.832 35 19C35 10.168 27.832 3 19 3ZM19 9.4C22.088 9.4 24.6 11.912 24.6 15C24.6 18.088 22.088 20.6 19 20.6C15.912 20.6 13.4 18.088 13.4 15C13.4 11.912 15.912 9.4 19 9.4ZM19 31.8C15.752 31.8 11.912 30.488 9.176 27.192C11.9786 24.9932 15.4378 23.7981 19 23.7981C22.5622 23.7981 26.0214 24.9932 28.824 27.192C26.088 30.488 22.248 31.8 19 31.8Z" fill="white"/>
<circle cx="19" cy="19" r="17.5" stroke="#E9B910" stroke-width="3"/>
</svg>
