<svg width="73" height="73" viewBox="0 0 73 73" fill="none" xmlns="http://www.w3.org/2000/svg">
<path d="M2.04071 2.04071C3.34778 0.734045 5.1203 0 6.96848 0C8.81667 0 10.5892 0.734045 11.8963 2.04071L36.5421 26.6865L61.1879 2.04071C62.5025 0.771076 64.2631 0.0685424 66.0906 0.084423C67.9181 0.100303 69.6663 0.833328 70.9585 2.12562C72.2508 3.41791 72.9839 5.16606 72.9997 6.99357C73.0156 8.82107 72.3131 10.5817 71.0434 11.8963L46.3976 36.5421L71.0434 61.1879C72.3131 62.5025 73.0156 64.2631 72.9997 66.0906C72.9839 67.9181 72.2508 69.6663 70.9585 70.9585C69.6663 72.2508 67.9181 72.9839 66.0906 72.9997C64.2631 73.0156 62.5025 72.3131 61.1879 71.0434L36.5421 46.3976L11.8963 71.0434C10.5817 72.3131 8.82107 73.0156 6.99357 72.9997C5.16606 72.9839 3.41791 72.2508 2.12562 70.9585C0.833328 69.6663 0.100303 67.9181 0.084423 66.0906C0.0685424 64.2631 0.771076 62.5025 2.04071 61.1879L26.6865 36.5421L2.04071 11.8963C0.734045 10.5892 0 8.81667 0 6.96848C0 5.1203 0.734045 3.34778 2.04071 2.04071Z" fill="white"/>
</svg>
