<svg width="37" height="37" viewBox="0 0 37 37" fill="none" xmlns="http://www.w3.org/2000/svg">
<path d="M13.6822 4.47096L26.6707 17.421C26.8249 17.5751 26.9344 17.7421 26.9991 17.922C27.0639 18.1019 27.0957 18.2946 27.0947 18.5001C27.0947 18.7057 27.0628 18.8984 26.9991 19.0783C26.9354 19.2581 26.8259 19.4251 26.6707 19.5793L13.6822 32.5678C13.3225 32.9276 12.8728 33.1074 12.3332 33.1074C11.7937 33.1074 11.3312 32.9147 10.9457 32.5293C10.5603 32.1439 10.3676 31.6942 10.3676 31.1803C10.3676 30.6664 10.5603 30.2168 10.9457 29.8314L22.277 18.5001L10.9457 7.16888C10.586 6.80916 10.4062 6.36567 10.4062 5.83842C10.4062 5.31117 10.5989 4.85535 10.9843 4.47096C11.3697 4.08555 11.8194 3.89284 12.3332 3.89284C12.8471 3.89284 13.2968 4.08555 13.6822 4.47096Z" fill="black"/>
</svg>
