<svg width="36" height="29" viewBox="0 0 36 29" fill="none" xmlns="http://www.w3.org/2000/svg">
<path d="M33.7468 14.1994H33.3123L33.2517 14.6295L31.6397 26.0538C31.4654 27.2897 30.4224 28.1994 29.2017 28.1994H6.68687C5.4662 28.1994 4.42319 27.2897 4.24876 26.0538C4.24876 26.0538 4.24876 26.0538 4.24876 26.0538L2.63691 14.6295L2.57622 14.1994H2.14181H1.64799C1.11176 14.1994 0.666504 13.7576 0.666504 13.1994V12.1994C0.666504 11.6412 1.11176 11.1994 1.64799 11.1994H5.80484H6.06131L6.21093 10.9911L12.8023 1.81479C12.8023 1.81479 12.8023 1.81479 12.8023 1.81478C13.2826 1.14617 14.2024 1.0011 14.8591 1.48459C15.5194 1.97084 15.668 2.91173 15.1851 3.58407L10.2837 10.4077L9.715 11.1994H10.6898H25.1988H26.1736L25.6049 10.4077L20.7035 3.58401L20.7035 3.584C20.2205 2.91175 20.3692 1.9708 21.0296 1.48451L21.0296 1.48449C21.6861 1.00105 22.606 1.14605 23.0863 1.81472L29.6776 10.9911L29.8273 11.1994H30.0837H34.2406C34.7768 11.1994 35.2221 11.6412 35.2221 12.1994V13.1994C35.2221 13.7576 34.7768 14.1994 34.2406 14.1994H33.7468ZM19.9258 23.1994V16.1994C19.9258 15.1007 19.0445 14.1994 17.9443 14.1994C16.8441 14.1994 15.9628 15.1007 15.9628 16.1994V23.1994C15.9628 24.2981 16.8441 25.1994 17.9443 25.1994C19.0445 25.1994 19.9258 24.2981 19.9258 23.1994ZM26.8393 23.1994V16.1994C26.8393 15.1007 25.9581 14.1994 24.8579 14.1994C23.7577 14.1994 22.8764 15.1007 22.8764 16.1994V23.1994C22.8764 24.2981 23.7577 25.1994 24.8579 25.1994C25.9581 25.1994 26.8393 24.2981 26.8393 23.1994ZM13.0122 23.1994V16.1994C13.0122 15.1007 12.1309 14.1994 11.0307 14.1994C9.93051 14.1994 9.04922 15.1007 9.04922 16.1994V23.1994C9.04922 24.2981 9.93051 25.1994 11.0307 25.1994C12.1309 25.1994 13.0122 24.2981 13.0122 23.1994Z" fill="#787878" stroke="#787878"/>
</svg>
