<svg width="39" height="40" viewBox="0 0 39 40" fill="none" xmlns="http://www.w3.org/2000/svg">
<rect y="0.5" width="39" height="39" rx="19.5" fill="#1C0808"/>
<path d="M26.1667 31.3797C25.2407 31.3797 24.4537 31.0478 23.8056 30.384C23.1574 29.7202 22.8333 28.9142 22.8333 27.9659C22.8333 27.8332 22.8426 27.6955 22.8611 27.5529C22.8796 27.4102 22.9074 27.2824 22.9444 27.1694L15.1111 22.5039C14.7963 22.7883 14.4444 23.0114 14.0556 23.173C13.6667 23.3345 13.2593 23.415 12.8333 23.4142C11.9074 23.4142 11.1204 23.0823 10.4722 22.4185C9.82407 21.7547 9.5 20.9487 9.5 20.0004C9.5 19.0521 9.82407 18.2461 10.4722 17.5823C11.1204 16.9185 11.9074 16.5866 12.8333 16.5866C13.2593 16.5866 13.6667 16.6674 14.0556 16.829C14.4444 16.9906 14.7963 17.2132 15.1111 17.497L22.9444 12.8314C22.9074 12.7176 22.8796 12.5898 22.8611 12.448C22.8426 12.3061 22.8333 12.1684 22.8333 12.0349C22.8333 11.0866 23.1574 10.2806 23.8056 9.61678C24.4537 8.95299 25.2407 8.62109 26.1667 8.62109C27.0926 8.62109 27.8796 8.95299 28.5278 9.61678C29.1759 10.2806 29.5 11.0866 29.5 12.0349C29.5 12.9832 29.1759 13.7892 28.5278 14.453C27.8796 15.1168 27.0926 15.4487 26.1667 15.4487C25.7407 15.4487 25.3333 15.3683 24.9444 15.2074C24.5556 15.0466 24.2037 14.8236 23.8889 14.5383L16.0556 19.2039C16.0926 19.3176 16.1204 19.4459 16.1389 19.5885C16.1574 19.7311 16.1667 19.8684 16.1667 20.0004C16.1667 20.1332 16.1574 20.2709 16.1389 20.4135C16.1204 20.5561 16.0926 20.6839 16.0556 20.797L23.8889 25.4625C24.2037 25.178 24.5556 24.9553 24.9444 24.7945C25.3333 24.6337 25.7407 24.5529 26.1667 24.5521C27.0926 24.5521 27.8796 24.884 28.5278 25.5478C29.1759 26.2116 29.5 27.0176 29.5 27.9659C29.5 28.9142 29.1759 29.7202 28.5278 30.384C27.8796 31.0478 27.0926 31.3797 26.1667 31.3797Z" fill="white"/>
</svg>
